<svg width="16" height="21" viewBox="0 0 16 21" fill="none" xmlns="http://www.w3.org/2000/svg">
<path d="M0 20.9998L0 6.99982L3 6.99982L3 4.99982C3 3.61648 3.48767 2.43715 4.463 1.46182C5.43767 0.48715 6.61667 -0.000183105 8 -0.000183105C9.38333 -0.000183105 10.5627 0.48715 11.538 1.46182C12.5127 2.43715 13 3.61648 13 4.99982L13 6.99982L16 6.99982L16 20.9998L0 20.9998ZM5 6.99982L11 6.99982L11 4.99982C11 4.16648 10.7083 3.45815 10.125 2.87482C9.54167 2.29148 8.83333 1.99982 8 1.99982C7.16667 1.99982 6.45833 2.29148 5.875 2.87482C5.29167 3.45815 5 4.16648 5 4.99982V6.99982ZM8 15.9998C8.55 15.9998 9.021 15.8042 9.413 15.4128C9.80433 15.0208 10 14.5498 10 13.9998C10 13.4498 9.80433 12.9788 9.413 12.5868C9.021 12.1955 8.55 11.9998 8 11.9998C7.45 11.9998 6.97933 12.1955 6.588 12.5868C6.196 12.9788 6 13.4498 6 13.9998C6 14.5498 6.196 15.0208 6.588 15.4128C6.97933 15.8042 7.45 15.9998 8 15.9998Z" fill="#11133C"/>
</svg>
