<svg width="568" height="270" viewBox="0 0 568 270" fill="none" xmlns="http://www.w3.org/2000/svg">
<g clip-path="url(#clip0_83_123)">
<g opacity="0.5">
<path d="M343.66 38.7495C376.615 13.0284 408.255 0 437.844 0C464.961 0 492.281 9.02619 514.551 25.0646V63.9948H481.558C467.131 54.6809 450.872 50.6123 437.84 50.6123C421.169 50.6123 401.183 59.0299 379.44 75.0867L379.96 39.2844L343.656 38.7532L343.66 38.7495Z" fill="#A0A1B1"/>
<path d="M411.898 33.7293H407.529V21.387H411.935C413.172 21.387 414.24 21.6341 415.135 22.1247C416.031 22.6153 416.719 23.3235 417.202 24.242C417.684 25.1605 417.927 26.2634 417.927 27.5434C417.927 28.8233 417.684 29.9336 417.202 30.8558C416.719 31.778 416.027 32.4899 415.124 32.9842C414.226 33.4784 413.146 33.7256 411.898 33.7256V33.7293ZM410.133 31.4939H411.787C412.557 31.4939 413.205 31.3575 413.732 31.0808C414.259 30.8042 414.657 30.3763 414.922 29.7971C415.187 29.218 415.323 28.4655 415.323 27.5471C415.323 26.6286 415.191 25.8908 414.922 25.3117C414.653 24.7326 414.259 24.3084 413.732 24.0354C413.205 23.7625 412.557 23.626 411.787 23.626H410.126V31.4939H410.133Z" fill="white"/>
<path d="M419.853 33.7293V21.387H428.156V23.5375H422.457V26.4773H427.728V28.6278H422.457V31.5751H428.178V33.7256H419.85L419.853 33.7293Z" fill="white"/>
<path d="M430.234 33.7293V21.387H435.096C436.032 21.387 436.827 21.564 437.487 21.9218C438.146 22.2759 438.647 22.7702 438.993 23.3973C439.339 24.0244 439.513 24.751 439.513 25.5699C439.513 26.3888 439.336 27.1118 438.982 27.7389C438.629 28.3659 438.12 28.8528 437.45 29.2033C436.783 29.5537 435.977 29.7271 435.026 29.7271H431.929V27.6356H434.606C435.107 27.6356 435.523 27.5471 435.848 27.3737C436.175 27.2003 436.419 26.9569 436.581 26.6433C436.743 26.3298 436.824 25.972 436.824 25.5662C436.824 25.1605 436.743 24.799 436.581 24.4891C436.419 24.183 436.172 23.9432 435.844 23.7735C435.516 23.6039 435.096 23.519 434.592 23.519H432.835V33.7256H430.23L430.234 33.7293Z" fill="white"/>
<path d="M441.207 33.7293V21.387H443.811V31.5751H449.093V33.7256H441.203L441.207 33.7293Z" fill="white"/>
<path d="M461.663 27.5581C461.663 28.9045 461.409 30.0479 460.901 30.9922C460.392 31.9366 459.704 32.6558 458.831 33.1538C457.958 33.6481 456.978 33.8989 455.891 33.8989C454.805 33.8989 453.814 33.6518 452.944 33.1501C452.075 32.6522 451.386 31.9329 450.882 30.9886C450.377 30.0443 450.123 28.9008 450.123 27.5618C450.123 26.2228 450.377 25.0719 450.882 24.1276C451.386 23.1833 452.075 22.464 452.944 21.9661C453.814 21.4718 454.797 21.2209 455.891 21.2209C456.985 21.2209 457.958 21.4681 458.831 21.9661C459.704 22.464 460.392 23.1833 460.901 24.1276C461.409 25.0719 461.663 26.2154 461.663 27.5618V27.5581ZM459.022 27.5581C459.022 26.6876 458.893 25.9498 458.635 25.3523C458.378 24.7547 458.013 24.301 457.545 23.9911C457.077 23.6813 456.525 23.5264 455.895 23.5264C455.265 23.5264 454.716 23.6813 454.245 23.9911C453.777 24.301 453.412 24.7547 453.154 25.3523C452.897 25.9498 452.768 26.6876 452.768 27.5581C452.768 28.4286 452.897 29.1664 453.154 29.7639C453.412 30.3615 453.777 30.8152 454.245 31.125C454.713 31.4349 455.265 31.5898 455.895 31.5898C456.525 31.5898 457.074 31.4349 457.545 31.125C458.017 30.8152 458.378 30.3615 458.635 29.7639C458.893 29.1664 459.022 28.4286 459.022 27.5581Z" fill="white"/>
<path d="M462.117 21.387H465.034L467.845 26.7023H467.966L470.777 21.387H473.694L469.2 29.3656V33.7293H466.615V29.3656L462.121 21.387H462.117Z" fill="white"/>
</g>
<path d="M511.653 24.5223C511.513 24.4153 511.372 24.3084 511.229 24.2051L511.653 26.5916V24.526V24.5223Z" fill="#FBCBA9"/>
<path d="M105.347 155.555H93.2656V122.826H105.329C108.658 122.826 111.528 123.478 113.937 124.784C116.346 126.09 118.206 127.964 119.513 130.409C120.821 132.855 121.477 135.776 121.477 139.174C121.477 142.571 120.825 145.515 119.521 147.964C118.217 150.413 116.357 152.291 113.944 153.596C111.528 154.902 108.662 155.555 105.343 155.555H105.347ZM101.166 148.812H105.045C106.876 148.812 108.426 148.499 109.697 147.875C110.968 147.252 111.933 146.234 112.585 144.825C113.237 143.416 113.565 141.531 113.565 139.174C113.565 136.817 113.233 134.943 112.574 133.541C111.915 132.139 110.942 131.129 109.66 130.505C108.379 129.882 106.802 129.572 104.927 129.572H101.163V148.812H101.166Z" fill="#11133C"/>
<path d="M126.074 155.555V122.826H148.863V129.251H133.975V135.965H147.699V142.405H133.975V149.133H148.863V155.559H126.074V155.555Z" fill="#11133C"/>
<path d="M161.231 122.826L168.538 146.798H168.811L176.119 122.826H184.959L173.931 155.555H163.415L152.387 122.826H161.227H161.231Z" fill="#11133C"/>
<path d="M418.786 139.192C418.786 142.792 418.094 145.847 416.713 148.347C415.331 150.852 413.46 152.752 411.103 154.054C408.745 155.352 406.104 156.005 403.18 156.005C400.255 156.005 397.6 155.349 395.25 154.039C392.9 152.73 391.036 150.826 389.658 148.325C388.281 145.828 387.592 142.781 387.592 139.192C387.592 135.603 388.281 132.538 389.658 130.033C391.036 127.529 392.9 125.629 395.25 124.327C397.6 123.028 400.244 122.375 403.18 122.375C406.116 122.375 408.745 123.025 411.103 124.327C413.46 125.625 415.328 127.529 416.713 130.033C418.094 132.538 418.786 135.588 418.786 139.192ZM410.712 139.192C410.712 137.06 410.41 135.26 409.81 133.792C409.21 132.32 408.348 131.21 407.224 130.454C406.101 129.698 404.753 129.318 403.18 129.318C401.607 129.318 400.27 129.698 399.143 130.454C398.016 131.21 397.15 132.324 396.55 133.792C395.949 135.264 395.647 137.064 395.647 139.192C395.647 141.321 395.949 143.124 396.55 144.592C397.15 146.064 398.016 147.174 399.143 147.931C400.27 148.687 401.614 149.067 403.18 149.067C404.745 149.067 406.101 148.691 407.224 147.931C408.348 147.174 409.21 146.06 409.81 144.592C410.41 143.121 410.712 141.321 410.712 139.192Z" fill="#11133C"/>
<path d="M423.38 155.555V122.826H436.88C439.326 122.826 441.44 123.301 443.223 124.257C445.006 125.212 446.379 126.536 447.348 128.237C448.317 129.937 448.799 131.911 448.799 134.157C448.799 136.404 448.306 138.388 447.322 140.077C446.339 141.767 444.936 143.073 443.116 144.002C441.296 144.932 439.138 145.393 436.637 145.393H428.305V139.159H435.167C436.357 139.159 437.355 138.952 438.158 138.536C438.961 138.119 439.569 137.536 439.985 136.787C440.401 136.038 440.608 135.16 440.608 134.157C440.608 133.154 440.401 132.269 439.985 131.527C439.569 130.786 438.957 130.214 438.151 129.808C437.34 129.402 436.346 129.2 435.167 129.2H431.274V155.551H423.373L423.38 155.555Z" fill="#11133C"/>
<path d="M470.343 132.637C470.236 131.464 469.765 130.553 468.932 129.897C468.1 129.24 466.91 128.916 465.367 128.916C464.346 128.916 463.495 129.048 462.814 129.314C462.133 129.58 461.621 129.945 461.282 130.409C460.943 130.874 460.766 131.402 460.755 131.999C460.733 132.49 460.832 132.921 461.05 133.294C461.267 133.667 461.587 133.995 462.007 134.279C462.427 134.563 462.936 134.81 463.532 135.02C464.129 135.234 464.799 135.419 465.543 135.581L468.35 136.219C469.967 136.57 471.396 137.038 472.634 137.625C473.872 138.211 474.918 138.908 475.761 139.72C476.608 140.531 477.249 141.461 477.684 142.516C478.118 143.571 478.343 144.755 478.354 146.064C478.343 148.13 477.82 149.904 476.789 151.387C475.757 152.866 474.277 154.002 472.343 154.792C470.413 155.581 468.085 155.976 465.363 155.976C462.641 155.976 460.247 155.566 458.213 154.744C456.18 153.925 454.6 152.678 453.473 151.003C452.346 149.332 451.768 147.215 451.734 144.659H459.3C459.363 145.714 459.646 146.592 460.144 147.296C460.641 148.001 461.333 148.532 462.21 148.893C463.087 149.255 464.107 149.436 465.267 149.436C466.332 149.436 467.238 149.292 467.989 149.004C468.741 148.716 469.315 148.318 469.72 147.805C470.125 147.293 470.332 146.71 470.343 146.046C470.332 145.43 470.14 144.899 469.768 144.456C469.396 144.013 468.825 143.63 468.052 143.305C467.282 142.98 466.298 142.678 465.109 142.401L461.694 141.601C458.865 140.952 456.637 139.9 455.009 138.443C453.381 136.99 452.57 135.02 452.582 132.538C452.57 130.513 453.112 128.738 454.21 127.215C455.304 125.692 456.821 124.504 458.759 123.652C460.696 122.8 462.902 122.372 465.381 122.372C467.86 122.372 470.114 122.8 471.978 123.659C473.846 124.519 475.293 125.717 476.328 127.263C477.36 128.809 477.886 130.598 477.908 132.634H470.343V132.637Z" fill="#11133C"/>
<g opacity="0.5">
<path d="M542.092 215.854H541.697L542.118 215.821C542.111 215.832 542.103 215.843 542.092 215.854Z" fill="#DBDCE2"/>
<path d="M396.447 207.422C409.822 216.57 421.48 219.388 437.845 219.388C451.51 219.388 472.384 213.836 489.987 198.252C492.016 196.455 494.109 194.415 496.19 192.132V223.228H536.206C532.287 227.791 528.04 232.114 523.458 236.171C499.527 257.348 467.522 269.996 437.845 269.996C408.569 269.996 386.384 262.859 363.665 246.138C361.709 244.699 359.761 243.191 357.809 241.627V207.422H396.451H396.447Z" fill="#A0A1B1"/>
<path d="M402.742 235.338H405.954L409.346 243.63H409.49L412.882 235.338H416.094V247.676H413.567V239.646H413.464L410.274 247.617H408.554L405.364 239.616H405.261V247.68H402.734V235.341L402.742 235.338Z" fill="white"/>
<path d="M429.567 241.509C429.567 242.855 429.313 243.999 428.805 244.943C428.297 245.887 427.608 246.606 426.735 247.104C425.862 247.599 424.882 247.849 423.796 247.849C422.709 247.849 421.718 247.602 420.849 247.101C419.98 246.603 419.291 245.883 418.786 244.939C418.281 243.995 418.027 242.851 418.027 241.512C418.027 240.173 418.281 239.022 418.786 238.078C419.291 237.134 419.98 236.415 420.849 235.917C421.718 235.422 422.702 235.172 423.796 235.172C424.89 235.172 425.862 235.419 426.735 235.917C427.608 236.415 428.297 237.134 428.805 238.078C429.313 239.022 429.567 240.166 429.567 241.512V241.509ZM426.926 241.509C426.926 240.638 426.797 239.9 426.54 239.303C426.282 238.705 425.917 238.252 425.449 237.942C424.982 237.632 424.429 237.477 423.799 237.477C423.169 237.477 422.621 237.632 422.149 237.942C421.681 238.252 421.317 238.705 421.059 239.303C420.801 239.9 420.672 240.638 420.672 241.509C420.672 242.379 420.801 243.117 421.059 243.714C421.317 244.312 421.681 244.766 422.149 245.076C422.617 245.385 423.169 245.54 423.799 245.54C424.429 245.54 424.978 245.385 425.449 245.076C425.921 244.766 426.282 244.312 426.54 243.714C426.797 243.117 426.926 242.379 426.926 241.509Z" fill="white"/>
<path d="M441.8 235.338V247.676H439.55L434.19 239.908H434.098V247.676H431.494V235.338H433.782L439.1 243.098H439.207V235.338H441.8Z" fill="white"/>
<path d="M446.551 235.338V247.676H443.947V235.338H446.551Z" fill="white"/>
<path d="M448.232 237.488V235.338H458.354V237.488H454.583V247.676H452.008V237.488H448.236H448.232Z" fill="white"/>
<path d="M470.8 241.509C470.8 242.855 470.546 243.999 470.037 244.943C469.529 245.887 468.84 246.606 467.967 247.104C467.094 247.599 466.115 247.849 465.028 247.849C463.941 247.849 462.951 247.602 462.081 247.101C461.212 246.603 460.523 245.883 460.019 244.939C459.514 243.995 459.26 242.851 459.26 241.512C459.26 240.173 459.514 239.022 460.019 238.078C460.523 237.134 461.212 236.415 462.081 235.917C462.951 235.419 463.934 235.172 465.028 235.172C466.122 235.172 467.094 235.419 467.967 235.917C468.84 236.415 469.529 237.134 470.037 238.078C470.546 239.022 470.8 240.166 470.8 241.512V241.509ZM468.159 241.509C468.159 240.638 468.03 239.9 467.772 239.303C467.514 238.705 467.15 238.252 466.682 237.942C466.214 237.632 465.662 237.477 465.032 237.477C464.402 237.477 463.853 237.632 463.385 237.942C462.914 238.252 462.553 238.705 462.295 239.303C462.037 239.9 461.908 240.638 461.908 241.509C461.908 242.379 462.037 243.117 462.295 243.714C462.553 244.312 462.917 244.766 463.385 245.076C463.853 245.385 464.405 245.54 465.032 245.54C465.658 245.54 466.21 245.385 466.682 245.076C467.153 244.766 467.514 244.312 467.772 243.714C468.03 243.117 468.159 242.379 468.159 241.509Z" fill="white"/>
<path d="M472.726 247.676V235.338H477.588C478.52 235.338 479.316 235.504 479.975 235.835C480.635 236.167 481.139 236.636 481.485 237.241C481.832 237.846 482.005 238.554 482.005 239.369C482.005 240.184 481.828 240.893 481.474 241.483C481.121 242.073 480.612 242.523 479.942 242.837C479.272 243.15 478.469 243.305 477.518 243.305H474.262V241.21H477.095C477.592 241.21 478.005 241.14 478.336 241.003C478.664 240.867 478.911 240.66 479.073 240.387C479.235 240.114 479.316 239.775 479.316 239.369C479.316 238.963 479.235 238.613 479.073 238.333C478.911 238.052 478.664 237.838 478.332 237.691C478.001 237.543 477.585 237.47 477.084 237.47H475.327V247.676H472.723H472.726ZM479.382 242.062L482.443 247.676H479.566L476.568 242.062H479.379H479.382Z" fill="white"/>
</g>
<path d="M521.917 71.3722V30.7783C522.823 31.5345 523.722 32.3017 524.606 33.0874C538.047 44.9723 548.603 59.2918 555.97 75.6363C563.952 93.3383 568 113.069 568 134.272C568 155.504 563.768 175.393 555.421 193.386C551.727 201.339 547.288 208.831 542.113 215.821L541.693 215.854H503.548V182.73C511.287 171.158 517.457 155.334 517.457 134.272C517.457 105.127 506.289 84.7289 491.271 71.3722H521.914H521.917Z" fill="#11133C"/>
<path d="M539.98 106.595C538.636 106.595 537.494 106.341 536.551 105.832C535.608 105.323 534.89 104.633 534.392 103.759C533.899 102.885 533.648 101.903 533.648 100.815C533.648 99.727 533.895 98.7348 534.396 97.8642C534.893 96.9937 535.612 96.3039 536.555 95.7986C537.498 95.2932 538.639 95.0387 539.976 95.0387C541.314 95.0387 542.463 95.2932 543.406 95.7986C544.349 96.3039 545.067 96.9937 545.564 97.8642C546.058 98.7348 546.308 99.7196 546.308 100.815C546.308 101.911 546.061 102.885 545.564 103.759C545.067 104.633 544.349 105.323 543.406 105.832C542.463 106.341 541.321 106.595 539.976 106.595H539.98ZM539.98 103.951C540.849 103.951 541.586 103.821 542.183 103.563C542.78 103.305 543.233 102.94 543.542 102.471C543.851 102.003 544.006 101.45 544.006 100.819C544.006 100.188 543.851 99.6385 543.542 99.17C543.233 98.6979 542.78 98.3364 542.183 98.0782C541.586 97.82 540.849 97.6909 539.98 97.6909C539.111 97.6909 538.374 97.82 537.777 98.0782C537.181 98.3364 536.728 98.7016 536.418 99.17C536.109 99.6385 535.954 100.192 535.954 100.819C535.954 101.446 536.109 101.999 536.418 102.471C536.728 102.944 537.181 103.305 537.777 103.563C538.374 103.821 539.111 103.951 539.98 103.951Z" fill="white"/>
<path d="M533.822 108.525H546.143V113.394C546.143 114.331 545.966 115.127 545.609 115.788C545.252 116.448 544.762 116.949 544.136 117.296C543.51 117.643 542.784 117.816 541.966 117.816C541.149 117.816 540.427 117.639 539.8 117.285C539.174 116.931 538.688 116.422 538.338 115.751C537.988 115.079 537.815 114.275 537.815 113.324V110.221H539.904V112.903C539.904 113.405 539.992 113.822 540.165 114.146C540.338 114.474 540.581 114.718 540.894 114.88C541.207 115.042 541.565 115.124 541.97 115.124C542.375 115.124 542.736 115.042 543.045 114.88C543.351 114.718 543.591 114.471 543.76 114.142C543.929 113.814 544.014 113.394 544.014 112.888V111.129H533.822V108.521V108.525Z" fill="white"/>
<path d="M533.822 119.513H546.143V127.827H543.996V122.121H541.06V127.399H538.913V122.121H535.97V127.85H533.822V119.509V119.513Z" fill="white"/>
<path d="M533.822 129.908H546.143V134.777C546.143 135.71 545.977 136.507 545.646 137.167C545.314 137.827 544.847 138.333 544.243 138.679C543.639 139.026 542.931 139.2 542.117 139.2C541.303 139.2 540.596 139.022 540.007 138.668C539.417 138.314 538.968 137.805 538.655 137.134C538.342 136.463 538.187 135.658 538.187 134.707V131.446H540.279V134.283C540.279 134.78 540.349 135.194 540.485 135.526C540.622 135.854 540.828 136.101 541.101 136.263C541.373 136.426 541.712 136.507 542.117 136.507C542.522 136.507 542.872 136.426 543.152 136.263C543.432 136.101 543.646 135.854 543.793 135.522C543.941 135.19 544.014 134.773 544.014 134.271V132.512H533.822V129.904V129.908ZM539.428 136.573L533.822 139.638V136.758L539.428 133.755V136.569V136.573Z" fill="white"/>
<path d="M533.822 143.169V140.373L546.143 144.633V147.997L533.822 152.25V149.454L543.329 146.363V146.267L533.822 143.169ZM538.666 142.995V149.598H536.633V142.995H538.666Z" fill="white"/>
<path d="M543.996 151.745H546.143V161.881H543.996V158.104H533.822V155.526H543.996V151.748V151.745Z" fill="white"/>
<path d="M533.822 163.556H546.143V171.87H543.996V166.164H541.06V171.442H538.913V166.164H535.97V171.896H533.822V163.556Z" fill="white"/>
<g opacity="0.5">
<path d="M359.338 56.599V56.7006L359.349 56.599H359.338Z" fill="#EB1D4B"/>
<path d="M324.39 55.0461L322.482 54.9613C322.449 54.9908 322.416 55.0166 322.387 55.0461H324.39Z" fill="#EB1D4B"/>
<path d="M372.576 46.5622H333.533C331.322 46.5622 314.084 62.4235 314.084 62.4235C304.032 71.5566 293.892 81.5197 281.427 94.4264L246.734 131.678C243.039 135.729 239.518 139.605 236.203 143.25C213.753 167.945 194.304 188.403 181.32 200.041H204.319L215.079 199.923L215.067 200.041H217.557V235.422C233.499 221.394 250.469 202.726 273.567 177.322C275.608 175.072 277.674 172.807 279.766 170.502L314.313 133.176C328.136 118.713 340.571 106.485 351.975 96.2265C351.975 96.2265 368.889 81.8849 372.204 80.4095C372.204 75.983 372.573 46.5585 372.573 46.5585L372.576 46.5622Z" fill="#A0A1B1"/>
<path d="M261.656 161.155L252.941 152.427L256.378 148.986C257.037 148.325 257.715 147.879 258.415 147.647C259.115 147.414 259.804 147.388 260.474 147.569C261.144 147.75 261.77 148.13 262.345 148.705C262.92 149.281 263.295 149.908 263.461 150.575C263.627 151.243 263.583 151.922 263.332 152.615C263.082 153.309 262.621 153.991 261.951 154.663L259.649 156.968L258.168 155.485L260.172 153.478C260.525 153.124 260.769 152.785 260.905 152.457C261.041 152.128 261.071 151.807 260.993 151.501C260.916 151.195 260.732 150.896 260.448 150.609C260.165 150.321 259.859 150.133 259.546 150.048C259.233 149.963 258.908 149.989 258.57 150.118C258.231 150.247 257.884 150.491 257.531 150.845L256.29 152.088L263.498 159.307L261.656 161.151V161.155ZM262.397 152.471L268.526 154.275L266.493 156.311L260.408 154.463L262.393 152.475L262.397 152.471Z" fill="white"/>
<path d="M269.516 153.283L260.801 144.556L266.672 138.676L268.19 140.196L264.16 144.231L266.237 146.311L269.965 142.578L271.483 144.098L267.755 147.831L269.836 149.915L273.88 145.865L275.398 147.385L269.508 153.283H269.516Z" fill="white"/>
<path d="M276.857 145.931L268.143 137.204L269.984 135.36L277.178 142.564L280.913 138.823L282.43 140.343L276.854 145.928L276.857 145.931Z" fill="white"/>
<path d="M283.656 139.126L274.941 130.398L280.813 124.519L282.33 126.038L278.301 130.074L280.378 132.154L284.106 128.421L285.623 129.941L281.896 133.674L283.977 135.758L288.021 131.708L289.539 133.228L283.649 139.126H283.656Z" fill="white"/>
<path d="M292.498 130.269L290.524 132.246L284.818 120.509L287.194 118.13L298.911 123.847L296.937 125.824L288.03 121.28L287.964 121.346L292.498 130.269ZM288.951 126.964L293.614 122.294L295.051 123.733L290.388 128.403L288.951 126.964Z" fill="white"/>
<path d="M298.269 112.055C297.894 111.745 297.477 111.623 297.032 111.693C296.582 111.76 296.137 112.018 295.695 112.46C295.393 112.763 295.183 113.058 295.057 113.349C294.932 113.641 294.892 113.914 294.928 114.172C294.965 114.43 295.079 114.651 295.267 114.84C295.418 115.002 295.588 115.105 295.776 115.149C295.963 115.194 296.166 115.194 296.376 115.149C296.586 115.105 296.807 115.031 297.035 114.924C297.264 114.817 297.496 114.692 297.728 114.544L298.697 113.947C299.161 113.652 299.625 113.416 300.085 113.239C300.546 113.062 300.995 112.962 301.433 112.936C301.872 112.91 302.299 112.973 302.708 113.124C303.117 113.276 303.507 113.534 303.872 113.895C304.402 114.434 304.73 115.031 304.852 115.688C304.973 116.348 304.888 117.034 304.601 117.754C304.31 118.473 303.813 119.185 303.102 119.897C302.391 120.609 301.68 121.107 300.943 121.413C300.207 121.719 299.481 121.804 298.767 121.671C298.052 121.538 297.374 121.166 296.733 120.55L298.516 118.764C298.829 119.037 299.157 119.196 299.5 119.24C299.842 119.284 300.188 119.233 300.538 119.078C300.888 118.923 301.22 118.687 301.536 118.37C301.853 118.052 302.074 117.739 302.214 117.418C302.354 117.097 302.409 116.791 302.373 116.499C302.339 116.208 302.218 115.961 302.008 115.751C301.813 115.555 301.592 115.448 301.341 115.43C301.094 115.411 300.811 115.467 300.498 115.592C300.185 115.717 299.831 115.902 299.437 116.145L298.251 116.857C297.337 117.414 296.479 117.717 295.672 117.761C294.866 117.805 294.144 117.506 293.503 116.857C292.973 116.33 292.652 115.729 292.545 115.05C292.438 114.371 292.52 113.67 292.799 112.947C293.076 112.224 293.532 111.546 294.17 110.911C294.807 110.277 295.492 109.808 296.196 109.546C296.899 109.284 297.584 109.214 298.247 109.34C298.91 109.465 299.507 109.782 300.034 110.295L298.269 112.062V112.055Z" fill="white"/>
<path d="M307.596 115.149L298.881 106.422L304.752 100.542L306.27 102.062L302.24 106.097L304.318 108.178L308.045 104.445L309.563 105.965L305.835 109.698L307.916 111.782L311.961 107.731L313.478 109.251L307.588 115.149H307.596Z" fill="white"/>
</g>
<g opacity="0.5">
<path d="M224.61 38.9635C224.521 38.8934 224.429 38.8196 224.341 38.7495L209.861 38.9635H224.61Z" fill="#11133C"/>
<path d="M188.148 39.2806L188.037 39.2843L188.148 46.8314V39.2806Z" fill="#11133C"/>
<path d="M234.031 46.6433C233.909 46.54 233.788 46.4404 233.67 46.3372H195.514V80.4353C197.447 81.9808 199.392 83.5817 201.348 85.2416C220.052 101.129 236.101 119.104 246.735 131.678L281.429 94.4264C269.793 80.9222 253.376 63.069 234.031 46.6433Z" fill="#A0A1B1"/>
<path d="M349.111 200.159H379.717L385.923 200.066C378.354 194.947 370.453 188.864 362.265 181.822C342.831 165.109 325.873 146.514 314.322 133.18L279.775 170.505C292.174 184.615 309.405 203.073 329.339 220.218C336.002 225.954 342.61 231.214 349.115 235.983V200.159H349.111Z" fill="#A0A1B1"/>
<path d="M219.537 75.7728L228.252 67.0454L231.689 70.4869C232.348 71.1472 232.786 71.837 233 72.5563C233.214 73.2719 233.221 73.9764 233.022 74.6662C232.823 75.356 232.436 75.9905 231.858 76.5696C231.28 77.1487 230.643 77.536 229.954 77.7278C229.261 77.9196 228.558 77.9049 227.836 77.6799C227.118 77.4549 226.421 77.0048 225.755 76.3372L223.563 74.1424L225.04 72.6633L226.933 74.5592C227.287 74.9134 227.644 75.1457 227.998 75.2527C228.351 75.3597 228.698 75.3634 229.033 75.2564C229.368 75.1494 229.677 74.9539 229.965 74.6699C230.252 74.3859 230.451 74.0686 230.55 73.7367C230.654 73.4047 230.646 73.0616 230.536 72.7075C230.425 72.3534 230.189 71.9993 229.832 71.6415L228.591 70.3984L221.382 77.6172L219.541 75.7728H219.537Z" fill="white"/>
<path d="M227.299 83.5449L236.014 74.8175L237.855 76.6618L230.662 83.8658L234.397 87.6061L232.879 89.1259L227.302 83.5412L227.299 83.5449Z" fill="white"/>
<path d="M235.814 92.0767L233.84 90.0996L245.56 84.3859L247.936 86.7651L242.227 98.4987L240.253 96.5216L244.791 87.6024L244.724 87.536L235.814 92.0767ZM239.114 88.5246L243.778 93.1944L242.341 94.633L237.678 89.9631L239.114 88.5246Z" fill="white"/>
<path d="M259.274 98.1188L250.559 106.846L248.968 105.253L250.662 95.9646L250.6 95.9019L245.115 101.394L243.273 99.55L251.988 90.8226L253.605 92.442L251.885 101.697L251.963 101.774L257.443 96.2856L259.278 98.1225L259.274 98.1188Z" fill="white"/>
</g>
<g opacity="0.5">
<path d="M224.34 38.7495C191.388 13.0284 159.744 0 130.159 0C103.042 0 75.7226 9.02619 53.4492 25.0646V63.9948H86.4413C100.869 54.6809 117.128 50.6123 130.159 50.6123C146.83 50.6123 166.816 59.0299 188.559 75.0867L188.04 39.2844L224.344 38.7532L224.34 38.7495Z" fill="#A0A1B1"/>
<path d="M119.312 25.7064H116.678C116.63 25.3633 116.531 25.0609 116.384 24.7953C116.236 24.5297 116.045 24.301 115.813 24.1129C115.581 23.9247 115.312 23.7809 115.01 23.6776C114.708 23.578 114.38 23.5264 114.026 23.5264C113.389 23.5264 112.833 23.685 112.361 23.9985C111.886 24.3121 111.521 24.7731 111.26 25.3707C110.998 25.972 110.87 26.6986 110.87 27.5544C110.87 28.4102 111.002 29.1737 111.264 29.7713C111.525 30.3689 111.893 30.8226 112.369 31.1287C112.844 31.4349 113.389 31.5861 114.011 31.5861C114.361 31.5861 114.685 31.5419 114.984 31.446C115.282 31.3537 115.547 31.2173 115.779 31.0402C116.012 30.8631 116.207 30.6418 116.361 30.3873C116.516 30.1291 116.623 29.8377 116.682 29.5094L119.316 29.5205C119.246 30.0885 119.076 30.6308 118.807 31.1582C118.538 31.682 118.174 32.1505 117.717 32.5636C117.26 32.9768 116.719 33.3014 116.093 33.5411C115.466 33.7809 114.755 33.8989 113.967 33.8989C112.87 33.8989 111.886 33.6518 111.021 33.1501C110.155 32.6522 109.473 31.9329 108.976 30.9886C108.475 30.0443 108.229 28.9008 108.229 27.5618C108.229 26.2228 108.483 25.0719 108.987 24.1276C109.492 23.1833 110.177 22.464 111.046 21.9661C111.912 21.4718 112.888 21.2209 113.971 21.2209C114.685 21.2209 115.349 21.3205 115.96 21.5234C116.571 21.7226 117.113 22.0177 117.588 22.4013C118.063 22.7849 118.446 23.2534 118.745 23.8067C119.043 24.36 119.234 24.9945 119.319 25.7101L119.312 25.7064Z" fill="white"/>
<path d="M132.505 27.5581C132.505 28.9045 132.251 30.0479 131.742 30.9922C131.234 31.9366 130.545 32.6558 129.672 33.1538C128.799 33.6481 127.82 33.8989 126.733 33.8989C125.646 33.8989 124.656 33.6518 123.786 33.1501C122.917 32.6522 122.228 31.9329 121.724 30.9886C121.219 30.0443 120.965 28.9008 120.965 27.5618C120.965 26.2228 121.219 25.0719 121.724 24.1276C122.228 23.1833 122.917 22.464 123.786 21.9661C124.656 21.4718 125.639 21.2209 126.733 21.2209C127.827 21.2209 128.799 21.4681 129.672 21.9661C130.545 22.464 131.234 23.1833 131.742 24.1276C132.251 25.0719 132.505 26.2154 132.505 27.5618V27.5581ZM129.864 27.5581C129.864 26.6876 129.735 25.9498 129.477 25.3523C129.219 24.7547 128.855 24.301 128.387 23.9911C127.919 23.6813 127.367 23.5264 126.737 23.5264C126.107 23.5264 125.558 23.6813 125.087 23.9911C124.619 24.301 124.254 24.7547 123.996 25.3523C123.738 25.9498 123.61 26.6876 123.61 27.5581C123.61 28.4286 123.738 29.1664 123.996 29.7639C124.254 30.3615 124.619 30.8152 125.087 31.125C125.554 31.4349 126.107 31.5898 126.737 31.5898C127.367 31.5898 127.915 31.4349 128.387 31.125C128.858 30.8152 129.219 30.3615 129.477 29.7639C129.735 29.1664 129.864 28.4286 129.864 27.5581Z" fill="white"/>
<path d="M138.8 33.7293H134.432V21.387H138.837C140.075 21.387 141.143 21.6341 142.038 22.1247C142.933 22.6153 143.622 23.3235 144.104 24.242C144.587 25.1605 144.83 26.2634 144.83 27.5434C144.83 28.8233 144.587 29.9336 144.104 30.8558C143.622 31.778 142.929 32.4899 142.027 32.9842C141.128 33.4784 140.049 33.7256 138.8 33.7256V33.7293ZM137.036 31.4939H138.69C139.459 31.4939 140.108 31.3575 140.634 31.0808C141.161 30.8042 141.559 30.3763 141.824 29.7971C142.089 29.218 142.226 28.4655 142.226 27.5471C142.226 26.6286 142.093 25.8908 141.824 25.3117C141.555 24.7326 141.161 24.3084 140.634 24.0354C140.108 23.7625 139.459 23.626 138.69 23.626H137.028V31.4939H137.036Z" fill="white"/>
<path d="M146.758 33.7293V21.387H155.06V23.5375H149.362V26.4773H154.633V28.6278H149.362V31.5751H155.082V33.7256H146.754L146.758 33.7293Z" fill="white"/>
</g>
<g opacity="0.5">
<path d="M46.0828 71.3722V30.7783C45.1767 31.5345 44.278 32.3017 43.394 33.0874C29.9533 44.9723 19.3967 59.2918 12.0299 75.6363C4.04804 93.3383 0 113.065 0 134.268C0 155.47 4.23221 175.389 12.5788 193.383C16.2732 201.335 20.7117 208.827 25.8868 215.817L26.3067 215.85H64.4519V182.726C56.7131 171.155 50.5434 155.33 50.5434 134.268C50.5434 105.124 61.7114 84.7252 76.7286 71.3685H46.0828V71.3722Z" fill="#A0A1B1"/>
<path d="M32.5941 157.661H20.2695V152.719C20.2695 151.811 20.4021 151.055 20.671 150.446C20.9399 149.841 21.3119 149.384 21.7871 149.078C22.2622 148.772 22.8074 148.62 23.4262 148.62C23.9087 148.62 24.3286 148.716 24.6933 148.908C25.0579 149.1 25.3526 149.366 25.5847 149.701C25.8167 150.037 25.9788 150.421 26.0745 150.848H26.1961C26.2145 150.38 26.3471 149.937 26.5939 149.524C26.837 149.111 27.1796 148.779 27.6216 148.521C28.0599 148.263 28.5829 148.134 29.187 148.134C29.8426 148.134 30.4246 148.296 30.9366 148.617C31.4486 148.941 31.8538 149.417 32.1484 150.048C32.4468 150.679 32.5941 151.457 32.5941 152.379V157.65V157.661ZM25.4263 155.054V153.121C25.4263 152.763 25.3637 152.446 25.2384 152.165C25.1132 151.885 24.9327 151.664 24.7006 151.501C24.4686 151.339 24.1887 151.258 23.8645 151.258C23.4188 151.258 23.0615 151.416 22.789 151.73C22.5164 152.044 22.3801 152.494 22.3801 153.069V155.05H25.43L25.4263 155.054ZM30.4615 155.054V152.925C30.4615 152.198 30.3215 151.667 30.0415 151.335C29.7616 151.003 29.3896 150.834 28.9255 150.834C28.5829 150.834 28.2846 150.915 28.0231 151.081C27.7615 151.247 27.559 151.479 27.4079 151.782C27.2569 152.084 27.1869 152.446 27.1869 152.862V155.05H30.4615V155.054Z" fill="white"/>
<path d="M20.2695 138.827V136.219H28.2735C29.1723 136.219 29.9568 136.433 30.6309 136.861C31.305 137.289 31.828 137.886 32.2037 138.654C32.5794 139.421 32.7673 140.314 32.7673 141.335C32.7673 142.357 32.5794 143.257 32.2037 144.024C31.828 144.792 31.305 145.389 30.6309 145.813C29.9568 146.238 29.1723 146.451 28.2735 146.451H20.2695V143.844H28.0488C28.5166 143.844 28.9365 143.74 29.3012 143.534C29.6658 143.327 29.9531 143.036 30.1631 142.656C30.3731 142.276 30.4762 141.837 30.4762 141.335C30.4762 140.834 30.3731 140.387 30.1631 140.011C29.9531 139.635 29.6695 139.343 29.3012 139.137C28.9365 138.93 28.5203 138.827 28.0488 138.827H20.2695Z" fill="white"/>
<path d="M20.2695 131.464H32.5905V134.072H20.2695V131.464Z" fill="white"/>
<path d="M32.5941 129.31H20.2695V126.702H30.443V121.413H32.5905V129.314L32.5941 129.31Z" fill="white"/>
<path d="M32.5941 115.308V119.683H20.2695V115.271C20.2695 114.032 20.5163 112.962 21.0062 112.066C21.4961 111.169 22.2033 110.48 23.1205 109.996C24.0376 109.513 25.139 109.27 26.4171 109.27C27.6952 109.27 28.8039 109.513 29.7248 109.996C30.6456 110.48 31.3565 111.173 31.8501 112.077C32.3437 112.977 32.5905 114.058 32.5905 115.308H32.5941ZM30.362 117.075V115.419C30.362 114.648 30.2257 113.999 29.9495 113.471C29.6732 112.944 29.2459 112.545 28.6676 112.28C28.0894 112.014 27.3379 111.878 26.4208 111.878C25.5036 111.878 24.7669 112.01 24.1887 112.28C23.6104 112.549 23.1868 112.944 22.9142 113.471C22.6416 113.999 22.5053 114.648 22.5053 115.419V117.082H30.362V117.075Z" fill="white"/>
</g>
<g opacity="0.5">
<path d="M25.9086 215.854H26.3036L25.8828 215.821C25.8828 215.821 25.8976 215.843 25.9086 215.854Z" fill="#DBDCE2"/>
<path d="M171.554 207.422C158.179 216.57 146.522 219.388 130.156 219.388C116.491 219.388 95.6171 213.836 78.0143 198.252C75.9847 196.455 73.8925 194.415 71.8114 192.132V223.228H31.7988C35.7179 227.791 39.9649 232.114 44.547 236.171C68.478 257.348 100.483 269.996 130.16 269.996C159.837 269.996 181.62 262.859 204.34 246.138C206.295 244.699 208.244 243.191 210.196 241.627V207.422H171.554Z" fill="#A0A1B1"/>
<path d="M111.654 237.488V235.338H121.776V237.488H118.004V247.676H115.43V237.488H111.658H111.654Z" fill="white"/>
<path d="M123.449 247.676V235.338H131.751V237.488H126.053V240.428H131.324V242.578H126.053V245.526H131.773V247.676H123.445H123.449Z" fill="white"/>
<path d="M140.509 238.886C140.461 238.399 140.255 238.023 139.891 237.754C139.526 237.484 139.029 237.352 138.406 237.352C137.983 237.352 137.622 237.411 137.331 237.529C137.04 237.647 136.815 237.809 136.66 238.019C136.506 238.229 136.428 238.466 136.428 238.731C136.421 238.952 136.469 239.144 136.568 239.31C136.671 239.476 136.811 239.616 136.992 239.734C137.172 239.852 137.382 239.956 137.618 240.041C137.854 240.125 138.108 240.199 138.377 240.262L139.485 240.527C140.023 240.649 140.517 240.808 140.966 241.011C141.415 241.214 141.806 241.457 142.134 241.752C142.462 242.047 142.719 242.39 142.9 242.789C143.084 243.187 143.176 243.641 143.18 244.157C143.176 244.913 142.985 245.566 142.605 246.119C142.226 246.673 141.681 247.101 140.97 247.403C140.259 247.706 139.401 247.857 138.399 247.857C137.397 247.857 136.539 247.706 135.802 247.399C135.065 247.093 134.491 246.64 134.082 246.042C133.673 245.444 133.456 244.696 133.434 243.81H135.953C135.982 244.224 136.1 244.57 136.31 244.843C136.52 245.116 136.804 245.326 137.157 245.463C137.511 245.599 137.916 245.669 138.366 245.669C138.815 245.669 139.191 245.607 139.519 245.478C139.846 245.349 140.101 245.172 140.281 244.943C140.461 244.714 140.554 244.452 140.554 244.153C140.554 243.877 140.473 243.644 140.31 243.453C140.148 243.264 139.913 243.102 139.6 242.969C139.29 242.837 138.907 242.715 138.458 242.608L137.117 242.269C136.078 242.014 135.257 241.619 134.656 241.081C134.056 240.542 133.758 239.819 133.761 238.904C133.758 238.156 133.957 237.506 134.362 236.946C134.763 236.389 135.319 235.95 136.027 235.64C136.734 235.326 137.533 235.172 138.432 235.172C139.331 235.172 140.145 235.326 140.83 235.64C141.515 235.954 142.045 236.389 142.428 236.946C142.811 237.503 143.007 238.152 143.018 238.886H140.52H140.509Z" fill="white"/>
<path d="M144.451 237.488V235.338H154.573V237.488H150.801V247.676H148.227V237.488H144.455H144.451Z" fill="white"/>
</g>
</g>
<defs>
<clipPath id="clip0_83_123">
<rect width="568" height="270" fill="white"/>
</clipPath>
</defs>
</svg>
