<svg width="360" height="308" viewBox="0 0 360 308" fill="none" xmlns="http://www.w3.org/2000/svg">
<path d="M360 88H230V308H360V88Z" fill="#C3D5E1"/>
<path d="M99.5 251L133 308H66L99.5 251Z" fill="#0D022F"/>
<path d="M199 88H0V236H199V88Z" fill="#0D022F"/>
<path d="M199.5 172C204.747 172 209 167.747 209 162.5C209 157.253 204.747 153 199.5 153C194.253 153 190 157.253 190 162.5C190 167.747 194.253 172 199.5 172Z" fill="#78FE9D"/>
<path d="M169.5 172C174.747 172 179 167.747 179 162.5C179 157.253 174.747 153 169.5 153C164.253 153 160 157.253 160 162.5C160 167.747 164.253 172 169.5 172Z" fill="#78FE9D"/>
<path d="M230 172C235.523 172 240 167.747 240 162.5C240 157.253 235.523 153 230 153C224.477 153 220 157.253 220 162.5C220 167.747 224.477 172 230 172Z" fill="#78FE9D"/>
<path d="M259.5 172C264.747 172 269 167.747 269 162.5C269 157.253 264.747 153 259.5 153C254.253 153 250 157.253 250 162.5C250 167.747 254.253 172 259.5 172Z" fill="#78FE9D"/>
<path d="M289.5 172C294.747 172 299 167.747 299 162.5C299 157.253 294.747 153 289.5 153C284.253 153 280 157.253 280 162.5C280 167.747 284.253 172 289.5 172Z" fill="#78FE9D"/>
<path d="M211.167 3.05176e-05V52.5837H162.132C162.044 51.4864 162 50.3781 162 49.2954C161.967 39.8929 164.599 30.6775 169.59 22.71C174.39 15.0764 181.238 8.94381 189.356 5.01692C196.157 1.72493 203.614 0.0110405 211.167 3.05176e-05Z" fill="#F9A86F"/>
<path d="M259.966 48.7743C259.966 50.301 259.922 51.6625 259.83 52.925H211.107V0C224.378 0.02936 236.695 5.02423 245.793 14.0671C254.931 23.154 259.966 35.4815 259.966 48.7743V48.7743Z" fill="#F9A86F"/>
<path d="M211.124 18.3306V52.3534H179.397C179.34 51.6435 179.312 50.9263 179.312 50.2258C179.291 44.1422 180.993 38.1796 184.223 33.0244C187.329 28.0853 191.759 24.1174 197.012 21.5766C201.412 19.4466 206.237 18.3377 211.124 18.3306Z" fill="#FCF8F3"/>
<path d="M242.699 49.8886C242.699 50.8765 242.67 51.7574 242.611 52.5743H211.086V18.3306C219.672 18.3496 227.641 21.5814 233.528 27.4323C239.441 33.3118 242.699 41.288 242.699 49.8886V49.8886Z" fill="#FCF8F3"/>
<path d="M259.988 50.5781H162V117.11H259.988V50.5781Z" fill="#F9A86F"/>
<path d="M223.855 72.5295C223.471 77.4047 221.644 79.7164 216.372 82.0167C209.902 84.87 205.552 88.6199 201.359 94.9637C200.64 96.0509 199.677 96.955 198.548 97.6035V72.5295H223.855V72.5295Z" fill="#0D022F"/>
<path d="M333 296.938L340.42 296.938L340.42 290.019C340.265 290.006 340.109 290 339.956 290C338.629 289.995 337.329 290.367 336.205 291.071C335.127 291.748 334.262 292.715 333.708 293.86C333.243 294.82 333.002 295.872 333 296.938Z" fill="#79FE9D"/>
</svg>
