<svg width="401" height="261" viewBox="0 0 401 261" fill="none" xmlns="http://www.w3.org/2000/svg">
<g clip-path="url(#clip0_58_1739)">
<path d="M212.625 236.938L222.575 233.784C223.815 228.445 223.735 222.884 222.334 217.581C218.334 226.47 206.613 228.649 199.928 235.741C195.743 240.253 193.836 246.426 194.743 252.518L192.65 259.616C202.545 258.771 211.569 253.635 217.353 245.561C218.933 243.308 220.223 240.864 221.192 238.29C216.952 237.864 212.619 236.938 212.619 236.938H212.625Z" fill="#F2F2F2"/>
<path d="M201.99 223.809L209.489 216.544C208.218 211.211 205.662 206.273 202.051 202.15C202.44 211.89 192.91 219.069 190.095 228.396C188.361 234.303 189.41 240.679 192.941 245.722L194.237 253.012C202.718 247.845 208.508 239.222 210.082 229.414C210.489 226.692 210.557 223.927 210.279 221.192C206.292 222.705 202.002 223.809 202.002 223.809H201.99Z" fill="#F2F2F2"/>
<path d="M59.8303 199.903C92.8736 199.903 119.661 173.116 119.661 140.073C119.661 107.03 92.8736 80.2428 59.8303 80.2428C26.7869 80.2428 0 107.03 0 140.073C0 173.116 26.7869 199.903 59.8303 199.903Z" fill="#1D43C6"/>
<path d="M75.6195 171.429H44.0532C37.5474 171.423 32.2698 166.146 32.2637 159.64V145.165C32.2698 138.66 37.5474 133.382 44.0532 133.376H75.6195C82.1253 133.382 87.4028 138.66 87.409 145.165V159.64C87.4028 166.146 82.1253 171.423 75.6195 171.429ZM44.0532 134.61C38.2263 134.617 33.5043 139.338 33.4982 145.165V159.64C33.5043 165.467 38.2263 170.189 44.0532 170.195H75.6195C81.4463 170.189 86.1683 165.467 86.1745 159.64V145.165C86.1683 139.338 81.4463 134.617 75.6195 134.61H44.0532Z" fill="white"/>
<path d="M42.1764 163.572H70.1997C76.3166 163.572 81.2732 158.615 81.2732 152.498V140.388C81.2732 139.042 81.0263 137.715 80.5448 136.456C83.3163 138.542 84.9458 141.808 84.9458 145.283V157.393C84.9458 163.51 79.9893 168.467 73.8723 168.467H45.8491C41.2505 168.467 37.1335 165.621 35.5039 161.319C37.4236 162.782 39.7691 163.572 42.1764 163.572Z" fill="#3F3D56"/>
<path d="M127.987 252.487H121.099L117.827 225.933H127.987V252.487Z" fill="#A0616A"/>
<path d="M128.228 259.672H107.057V259.4C107.057 254.851 110.748 251.16 115.297 251.16L119.167 248.228L126.383 251.16H128.228V259.672Z" fill="#2F2E41"/>
<path d="M176.707 252.487H183.59L186.867 225.933H176.701L176.707 252.487Z" fill="#A0616A"/>
<path d="M176.46 259.672H197.632V259.4C197.632 254.851 193.941 251.16 189.391 251.16L185.521 248.228L178.306 251.16H176.46V259.672Z" fill="#2F2E41"/>
<path d="M117.525 206.415C117.624 204.897 118.432 196.521 118.432 196.521L120.371 178.75L123.784 131.635L124.006 128.549L141.888 125.117L154.11 119.259L168.634 123.901L179.942 128.142C179.942 128.142 179.96 129.956 180.047 132.147C180.164 135.018 180.368 138.536 180.849 139.456C181.658 141.073 181.454 149.752 181.454 149.752C181.454 149.752 182.256 167.411 183.269 169.349C184.281 171.287 184.485 175.318 184.176 176.127C183.867 176.935 185.188 198.144 185.188 198.144C185.188 198.144 188.571 235.679 186.447 241.339C184.324 247 176.312 243.29 176.312 243.29C176.312 243.29 176.701 241.778 174.374 241.068C172.047 240.358 164.973 187.132 164.973 187.132C164.973 187.132 163.659 176.219 162.449 173.09C161.239 169.96 160.122 161.177 160.122 161.177C160.122 161.177 152.647 146.634 152.548 143.4C152.548 143.4 151.573 140.375 150.647 143.702C149.721 147.029 146.999 155.011 146.999 155.011L144.339 164.812L141.209 179.454L139.184 191.78C139.184 191.78 136.154 208.137 135.672 208.847C135.191 209.557 135.672 224.501 135.672 224.501C135.672 224.501 133.327 237.229 130.018 239.451C126.71 241.673 117.932 239.488 117.932 239.488C117.932 239.488 117.414 207.921 117.519 206.409L117.525 206.415Z" fill="#2F2E41"/>
<path d="M125.148 85.5758L129.123 97.5505L124.222 103.39L126.382 105.612L124.79 108.754L120.636 141.684L143.406 150.326L151.079 140.709L157.122 150.326L183.478 143.888L176.756 101.89V99.143L174.861 93.8408V82.6192L179.867 49.2135L164.911 43.973L157.763 38.3128L155.449 46.2754L145.597 44.5224L145.338 38.5412L137.802 45.6643L131.456 47.4729L123.852 49.2135L122.883 51.6331L124.821 51.1517L124.506 82.6439L125.148 85.5758Z" fill="#2F2E41"/>
<path d="M118.346 129.388L122.173 92.3656L123.185 77.1257L112.482 75.1875C112.482 75.1875 112.908 86.082 111.506 92.2298C110.124 98.2974 111.321 128.574 111.408 129.382C109.266 131.302 109.081 134.592 110.994 136.74C112.908 138.888 116.204 139.067 118.352 137.153C120.494 135.234 120.679 131.944 118.765 129.796C118.636 129.654 118.5 129.518 118.358 129.388H118.346Z" fill="#A0616A"/>
<path d="M107.902 100.032L110.877 100.649L121.093 102.766L121.661 102.884L122.864 98.0877L124.266 96.5939L126.926 82.6378L127.068 81.9095L131.092 73.3111L133.876 47.4668L123.525 49.3247C123.469 49.3803 123.426 49.4358 123.377 49.4914C121.889 51.1765 120.828 53.522 119.099 55.8799C113.458 63.5524 109.131 82.1996 109.297 92.4151C109.297 92.5818 109.131 92.7608 108.927 92.9459C106.946 94.7668 106.52 97.7235 107.902 100.032Z" fill="#2F2E41"/>
<path d="M184.898 129.388L181.071 92.3656L180.059 77.1257L190.762 75.1875C190.762 75.1875 190.336 86.082 191.737 92.2298C193.12 98.2974 191.922 128.574 191.836 129.382C193.978 131.302 194.163 134.592 192.249 136.74C190.336 138.888 187.04 139.067 184.892 137.153C182.744 135.24 182.565 131.944 184.478 129.796C184.608 129.654 184.744 129.518 184.886 129.388H184.898Z" fill="#A0616A"/>
<path d="M195.342 100.032L192.366 100.649L182.151 102.766L181.583 102.884L180.379 98.0877L178.978 96.5939L176.318 82.6378L176.176 81.9095L172.151 73.3111L173.071 47.4668L179.719 49.3247C179.774 49.3803 179.818 49.4358 179.867 49.4914C181.355 51.1765 182.416 53.522 184.145 55.8799C189.786 63.5524 194.113 82.1996 193.947 92.4151C193.947 92.5818 194.113 92.7608 194.317 92.9459C196.298 94.7668 196.724 97.7235 195.342 100.032Z" fill="#2F2E41"/>
<path d="M140.474 51.2998L145.338 38.5412L157.763 38.3128L161.887 51.2998L176.707 134.073C176.707 134.073 131.314 146.715 131.771 131.518C132.252 115.543 134.438 94.3161 134.438 94.3161L140.474 51.2936V51.2998Z" fill="#1D43C6"/>
<path d="M151.276 34.9735C159.358 34.9735 165.911 28.4211 165.911 20.3384C165.911 12.2557 159.358 5.70337 151.276 5.70337C143.193 5.70337 136.641 12.2557 136.641 20.3384C136.641 28.4211 143.193 34.9735 151.276 34.9735Z" fill="#A0616A"/>
<path d="M135.777 9.72171C138.16 7.12925 141.141 2.38258 150.165 0.38886C161.319 -2.07398 166.59 7.99958 163.776 8.16624C172.004 10.6599 166.72 27.6776 164.362 26.2517C164.343 26.2394 164.325 26.2209 164.306 26.2085C161.745 24.3197 160.072 21.4618 159.677 18.3015L159.233 14.2709C159.171 17.5485 155.819 17.9805 152.4 16.7769C152.813 15.314 153.967 14.1783 155.43 13.7894C153.048 15.9498 150.017 17.2707 146.807 17.5423C147.147 15.8819 148.19 14.4499 149.665 13.6166L149.529 13.487C148.19 14.6165 146.659 15.4807 145.005 16.0485C143.116 16.5917 140.857 16.2954 139.567 14.8202C139.221 14.4128 138.956 13.9375 138.795 13.4314C139.073 16.0239 137.332 18.9867 135.981 18.4805C134.857 18.2645 134.203 11.4562 135.783 9.72789L135.777 9.72171Z" fill="#2F2E41"/>
<path d="M240 259.672C240 260.079 239.673 260.406 239.272 260.406H66.256C65.8486 260.406 65.5215 260.079 65.5215 259.672C65.5215 259.264 65.8486 258.937 66.256 258.937H239.266C239.673 258.937 240 259.264 240 259.666V259.672Z" fill="#CCCCCC"/>
<path d="M78.94 134.777H40.7197V123.531C40.7197 114.457 49.2934 107.075 59.8299 107.075C70.3663 107.075 78.94 114.457 78.94 123.531V134.777ZM41.9542 133.542H77.7055V123.531C77.7055 115.136 69.6874 108.309 59.8299 108.309C49.9723 108.309 41.9542 115.136 41.9542 123.531V133.542Z" fill="white"/>
</g>
<path d="M243.5 101.364L245.176 110.841H245.307L250.108 101.364H252.006L245.886 113H243.858L241.602 101.364H243.5ZM251.618 113L253.072 104.273H254.771L253.317 113H251.618ZM254.277 102.909C253.982 102.909 253.732 102.811 253.527 102.614C253.326 102.413 253.233 102.174 253.249 101.898C253.264 101.617 253.381 101.379 253.601 101.182C253.821 100.981 254.076 100.881 254.368 100.881C254.663 100.881 254.911 100.981 255.112 101.182C255.313 101.379 255.408 101.617 255.396 101.898C255.381 102.174 255.264 102.413 255.044 102.614C254.828 102.811 254.572 102.909 254.277 102.909ZM267.479 106.403L265.893 106.676C265.859 106.475 265.789 106.286 265.683 106.108C265.581 105.93 265.424 105.786 265.212 105.676C265 105.562 264.717 105.506 264.365 105.506C263.876 105.506 263.448 105.617 263.081 105.841C262.717 106.064 262.509 106.348 262.456 106.693C262.407 106.973 262.473 107.201 262.655 107.375C262.837 107.545 263.157 107.687 263.615 107.801L264.956 108.119C265.729 108.305 266.282 108.595 266.615 108.989C266.952 109.379 267.07 109.886 266.967 110.511C266.88 111.03 266.653 111.491 266.286 111.892C265.922 112.294 265.456 112.608 264.888 112.835C264.32 113.063 263.687 113.176 262.99 113.176C261.998 113.176 261.225 112.966 260.672 112.545C260.119 112.125 259.835 111.53 259.82 110.761L261.501 110.511C261.532 110.939 261.685 111.263 261.962 111.483C262.242 111.699 262.63 111.807 263.126 111.807C263.695 111.811 264.17 111.691 264.553 111.449C264.935 111.206 265.153 110.913 265.206 110.568C265.251 110.299 265.191 110.076 265.024 109.898C264.861 109.72 264.573 109.583 264.161 109.489L262.751 109.165C261.964 108.979 261.407 108.68 261.081 108.267C260.755 107.854 260.645 107.335 260.751 106.71C260.835 106.199 261.051 105.754 261.399 105.375C261.751 104.992 262.196 104.695 262.734 104.483C263.272 104.267 263.867 104.159 264.518 104.159C265.469 104.159 266.183 104.364 266.661 104.773C267.138 105.178 267.411 105.722 267.479 106.403ZM270.466 110.04L270.79 107.966H271.091L275.193 104.273H277.227L272.568 108.477H272.301L270.466 110.04ZM268.415 113L270.347 101.364H272.045L270.114 113H268.415ZM273.926 113L271.494 108.852L272.852 107.665L276.011 113H273.926ZM279.838 113.193C279.285 113.193 278.802 113.091 278.389 112.886C277.976 112.678 277.671 112.377 277.474 111.983C277.277 111.589 277.226 111.106 277.321 110.534C277.404 110.042 277.567 109.636 277.81 109.318C278.056 109 278.355 108.748 278.707 108.562C279.06 108.373 279.442 108.231 279.855 108.136C280.268 108.042 280.685 107.972 281.105 107.926C281.635 107.866 282.065 107.814 282.395 107.773C282.728 107.731 282.978 107.667 283.145 107.58C283.312 107.489 283.412 107.341 283.446 107.136V107.097C283.526 106.604 283.454 106.222 283.23 105.949C283.01 105.672 282.628 105.534 282.082 105.534C281.514 105.534 281.037 105.659 280.651 105.909C280.268 106.159 279.986 106.439 279.804 106.75L278.281 106.386C278.554 105.856 278.901 105.428 279.321 105.102C279.745 104.773 280.209 104.534 280.713 104.386C281.217 104.235 281.732 104.159 282.259 104.159C282.607 104.159 282.969 104.201 283.344 104.284C283.719 104.364 284.06 104.511 284.366 104.727C284.677 104.943 284.908 105.252 285.06 105.653C285.211 106.051 285.234 106.568 285.128 107.205L284.168 113H282.509L282.713 111.807H282.645C282.501 112.027 282.3 112.242 282.043 112.455C281.789 112.667 281.478 112.843 281.111 112.983C280.743 113.123 280.319 113.193 279.838 113.193ZM280.418 111.83C280.891 111.83 281.31 111.737 281.673 111.551C282.041 111.366 282.338 111.123 282.565 110.824C282.793 110.521 282.935 110.197 282.991 109.852L283.179 108.727C283.107 108.788 282.98 108.843 282.798 108.892C282.62 108.941 282.42 108.985 282.196 109.023C281.973 109.061 281.753 109.093 281.537 109.119C281.325 109.146 281.149 109.17 281.009 109.193C280.675 109.235 280.363 109.305 280.071 109.403C279.783 109.502 279.543 109.644 279.349 109.83C279.156 110.011 279.035 110.254 278.986 110.557C278.918 110.977 279.018 111.295 279.287 111.511C279.56 111.723 279.937 111.83 280.418 111.83ZM290.061 101.364L288.129 113H286.43L288.362 101.364H290.061ZM297.763 116.455C297.066 116.455 296.482 116.364 296.013 116.182C295.547 116 295.179 115.759 294.911 115.46C294.645 115.161 294.462 114.833 294.359 114.477L295.928 113.875C296.003 114.042 296.109 114.218 296.246 114.403C296.382 114.593 296.585 114.754 296.854 114.886C297.126 115.019 297.5 115.085 297.973 115.085C298.617 115.085 299.179 114.928 299.661 114.614C300.142 114.303 300.439 113.807 300.553 113.125L300.82 111.409H300.712C300.583 111.595 300.405 111.801 300.178 112.028C299.95 112.256 299.657 112.453 299.297 112.619C298.937 112.786 298.49 112.869 297.956 112.869C297.267 112.869 296.672 112.708 296.172 112.386C295.676 112.061 295.32 111.581 295.104 110.949C294.888 110.312 294.857 109.53 295.013 108.602C295.164 107.674 295.452 106.879 295.876 106.216C296.304 105.553 296.823 105.045 297.433 104.693C298.047 104.337 298.704 104.159 299.405 104.159C299.946 104.159 300.369 104.25 300.672 104.432C300.979 104.61 301.206 104.818 301.354 105.057C301.501 105.295 301.609 105.506 301.678 105.688H301.803L302.036 104.273H303.7L302.223 113.193C302.102 113.943 301.827 114.559 301.399 115.04C300.975 115.521 300.446 115.877 299.814 116.108C299.185 116.339 298.501 116.455 297.763 116.455ZM298.536 111.46C299.02 111.46 299.452 111.347 299.831 111.119C300.214 110.888 300.532 110.559 300.786 110.131C301.039 109.699 301.215 109.182 301.314 108.58C301.412 107.992 301.407 107.475 301.297 107.028C301.191 106.581 300.984 106.233 300.678 105.983C300.375 105.729 299.979 105.602 299.49 105.602C298.975 105.602 298.528 105.735 298.149 106C297.77 106.261 297.462 106.617 297.223 107.068C296.988 107.519 296.823 108.023 296.729 108.58C296.638 109.152 296.64 109.653 296.734 110.085C296.833 110.517 297.03 110.854 297.325 111.097C297.621 111.339 298.024 111.46 298.536 111.46ZM306.026 104.273H307.724L306.185 113.568C306.086 114.152 305.897 114.644 305.616 115.045C305.336 115.447 304.973 115.752 304.526 115.96C304.079 116.169 303.554 116.273 302.952 116.273C302.895 116.273 302.84 116.273 302.787 116.273C302.73 116.273 302.671 116.271 302.611 116.267L302.855 114.807C302.904 114.807 302.95 114.807 302.991 114.807C303.033 114.807 303.079 114.807 303.128 114.807C303.529 114.807 303.84 114.699 304.06 114.483C304.276 114.267 304.42 113.958 304.491 113.557L306.026 104.273ZM307.19 102.926C306.899 102.926 306.651 102.828 306.446 102.631C306.245 102.43 306.152 102.191 306.168 101.915C306.179 101.634 306.295 101.396 306.514 101.199C306.734 100.998 306.991 100.898 307.287 100.898C307.582 100.898 307.83 100.998 308.031 101.199C308.232 101.396 308.325 101.634 308.31 101.915C308.298 102.191 308.183 102.43 307.963 102.631C307.743 102.828 307.486 102.926 307.19 102.926ZM309.555 113.506L308.709 112.858L316.357 103.835L317.186 104.483L309.555 113.506ZM312.271 113.176C311.442 113.176 310.749 112.987 310.192 112.608C309.635 112.225 309.243 111.691 309.016 111.006C308.792 110.316 308.754 109.515 308.902 108.602C309.046 107.708 309.336 106.928 309.771 106.261C310.211 105.595 310.76 105.078 311.419 104.71C312.082 104.343 312.819 104.159 313.629 104.159C314.459 104.159 315.15 104.35 315.703 104.733C316.26 105.116 316.652 105.652 316.879 106.341C317.107 107.03 317.146 107.833 316.999 108.75C316.855 109.636 316.561 110.413 316.118 111.08C315.679 111.742 315.129 112.258 314.47 112.625C313.811 112.992 313.078 113.176 312.271 113.176ZM312.368 111.75C312.913 111.75 313.389 111.606 313.794 111.318C314.203 111.03 314.536 110.648 314.794 110.17C315.052 109.693 315.228 109.17 315.322 108.602C315.41 108.053 315.408 107.551 315.317 107.097C315.23 106.638 315.04 106.271 314.749 105.994C314.457 105.718 314.052 105.58 313.533 105.58C312.987 105.58 312.508 105.725 312.095 106.017C311.686 106.305 311.353 106.689 311.095 107.17C310.841 107.652 310.669 108.176 310.578 108.744C310.491 109.29 310.491 109.792 310.578 110.25C310.665 110.705 310.855 111.068 311.146 111.341C311.438 111.614 311.845 111.75 312.368 111.75ZM318.196 113L319.651 104.273H321.293L321.06 105.659H321.151C321.385 105.189 321.728 104.82 322.179 104.551C322.63 104.278 323.111 104.142 323.622 104.142C323.732 104.142 323.857 104.146 323.997 104.153C324.137 104.157 324.251 104.167 324.338 104.182L324.065 105.807C324.001 105.788 323.884 105.767 323.713 105.744C323.543 105.718 323.366 105.705 323.185 105.705C322.787 105.705 322.418 105.79 322.077 105.96C321.736 106.127 321.45 106.36 321.219 106.659C320.988 106.955 320.838 107.292 320.77 107.67L319.895 113H318.196ZM327.794 113.176C326.938 113.176 326.23 112.992 325.669 112.625C325.112 112.254 324.722 111.733 324.499 111.062C324.275 110.388 324.239 109.598 324.391 108.693C324.538 107.799 324.836 107.011 325.283 106.33C325.73 105.648 326.286 105.116 326.953 104.733C327.624 104.35 328.364 104.159 329.175 104.159C329.667 104.159 330.131 104.241 330.567 104.403C331.006 104.566 331.379 104.822 331.686 105.17C331.993 105.519 332.205 105.972 332.322 106.528C332.444 107.081 332.44 107.754 332.311 108.545L332.214 109.148H325.271L325.47 107.875H330.743C330.822 107.428 330.802 107.032 330.68 106.688C330.559 106.339 330.351 106.064 330.055 105.864C329.764 105.663 329.396 105.562 328.953 105.562C328.499 105.562 328.074 105.682 327.68 105.92C327.286 106.159 326.957 106.464 326.692 106.835C326.43 107.203 326.266 107.581 326.197 107.972L325.999 109.136C325.9 109.773 325.917 110.284 326.05 110.67C326.186 111.057 326.425 111.337 326.766 111.511C327.107 111.686 327.533 111.773 328.044 111.773C328.374 111.773 328.679 111.727 328.959 111.636C329.243 111.542 329.495 111.403 329.714 111.222C329.934 111.036 330.118 110.805 330.266 110.528L331.822 110.818C331.614 111.292 331.315 111.706 330.925 112.062C330.535 112.415 330.074 112.689 329.544 112.886C329.018 113.08 328.434 113.176 327.794 113.176ZM346.632 104.273L342.013 113H340.195L338.479 104.273H340.234L341.325 110.989H341.416L344.74 104.273H346.632ZM349.041 113.193C348.488 113.193 348.005 113.091 347.592 112.886C347.179 112.678 346.875 112.377 346.678 111.983C346.481 111.589 346.429 111.106 346.524 110.534C346.607 110.042 346.77 109.636 347.013 109.318C347.259 109 347.558 108.748 347.911 108.562C348.263 108.373 348.645 108.231 349.058 108.136C349.471 108.042 349.888 107.972 350.308 107.926C350.839 107.866 351.268 107.814 351.598 107.773C351.931 107.731 352.181 107.667 352.348 107.58C352.515 107.489 352.615 107.341 352.649 107.136V107.097C352.729 106.604 352.657 106.222 352.433 105.949C352.214 105.672 351.831 105.534 351.286 105.534C350.717 105.534 350.24 105.659 349.854 105.909C349.471 106.159 349.189 106.439 349.007 106.75L347.484 106.386C347.757 105.856 348.104 105.428 348.524 105.102C348.948 104.773 349.412 104.534 349.916 104.386C350.42 104.235 350.935 104.159 351.462 104.159C351.81 104.159 352.172 104.201 352.547 104.284C352.922 104.364 353.263 104.511 353.57 104.727C353.88 104.943 354.111 105.252 354.263 105.653C354.414 106.051 354.437 106.568 354.331 107.205L353.371 113H351.712L351.916 111.807H351.848C351.704 112.027 351.503 112.242 351.246 112.455C350.992 112.667 350.681 112.843 350.314 112.983C349.946 113.123 349.522 113.193 349.041 113.193ZM349.621 111.83C350.094 111.83 350.513 111.737 350.876 111.551C351.244 111.366 351.541 111.123 351.768 110.824C351.996 110.521 352.138 110.197 352.195 109.852L352.382 108.727C352.31 108.788 352.183 108.843 352.001 108.892C351.823 108.941 351.623 108.985 351.399 109.023C351.176 109.061 350.956 109.093 350.74 109.119C350.528 109.146 350.352 109.17 350.212 109.193C349.878 109.235 349.566 109.305 349.274 109.403C348.986 109.502 348.746 109.644 348.553 109.83C348.359 110.011 348.238 110.254 348.189 110.557C348.121 110.977 348.221 111.295 348.49 111.511C348.763 111.723 349.14 111.83 349.621 111.83ZM351.774 103.307C351.395 103.307 351.064 103.223 350.78 103.057C350.496 102.886 350.28 102.657 350.132 102.369C349.984 102.081 349.929 101.758 349.967 101.398C350.005 101.042 350.13 100.716 350.342 100.42C350.558 100.121 350.831 99.8826 351.161 99.7045C351.49 99.5265 351.842 99.4375 352.217 99.4375C352.596 99.4375 352.926 99.5265 353.206 99.7045C353.486 99.8826 353.698 100.121 353.842 100.42C353.99 100.716 354.045 101.042 354.007 101.398C353.969 101.758 353.844 102.081 353.632 102.369C353.42 102.657 353.151 102.886 352.825 103.057C352.5 103.223 352.149 103.307 351.774 103.307ZM351.893 102.398C352.189 102.398 352.443 102.295 352.655 102.091C352.867 101.886 352.988 101.655 353.018 101.398C353.049 101.133 352.977 100.896 352.803 100.688C352.632 100.475 352.399 100.369 352.104 100.369C351.808 100.369 351.553 100.475 351.337 100.688C351.125 100.896 351.003 101.133 350.973 101.398C350.943 101.655 351.013 101.886 351.183 102.091C351.357 102.295 351.594 102.398 351.893 102.398ZM355.634 113L357.088 104.273H358.73L358.497 105.659H358.588C358.823 105.189 359.166 104.82 359.616 104.551C360.067 104.278 360.548 104.142 361.06 104.142C361.17 104.142 361.295 104.146 361.435 104.153C361.575 104.157 361.688 104.167 361.776 104.182L361.503 105.807C361.438 105.788 361.321 105.767 361.151 105.744C360.98 105.718 360.804 105.705 360.622 105.705C360.224 105.705 359.855 105.79 359.514 105.96C359.173 106.127 358.887 106.36 358.656 106.659C358.425 106.955 358.276 107.292 358.207 107.67L357.332 113H355.634ZM367.849 104.273L367.628 105.636H362.861L363.082 104.273H367.849ZM364.702 102.182H366.401L365.026 110.438C364.973 110.767 364.982 111.015 365.054 111.182C365.126 111.345 365.236 111.456 365.384 111.517C365.535 111.574 365.704 111.602 365.889 111.602C366.026 111.602 366.145 111.593 366.247 111.574C366.349 111.555 366.431 111.54 366.491 111.528L366.582 112.932C366.469 112.97 366.315 113.008 366.122 113.045C365.933 113.087 365.702 113.11 365.429 113.114C364.982 113.121 364.579 113.042 364.219 112.875C363.859 112.705 363.59 112.447 363.412 112.102C363.234 111.754 363.19 111.316 363.281 110.79L364.702 102.182ZM240.551 141L242.483 129.364H244.182L243.472 133.688H243.574C243.703 133.506 243.879 133.295 244.102 133.057C244.33 132.818 244.623 132.61 244.983 132.432C245.343 132.25 245.794 132.159 246.335 132.159C247.04 132.159 247.638 132.337 248.131 132.693C248.623 133.049 248.972 133.562 249.176 134.233C249.381 134.903 249.405 135.71 249.25 136.653C249.095 137.597 248.803 138.405 248.375 139.08C247.951 139.75 247.434 140.267 246.824 140.631C246.214 140.991 245.557 141.17 244.852 141.17C244.322 141.17 243.903 141.081 243.597 140.903C243.294 140.725 243.066 140.517 242.915 140.278C242.767 140.04 242.655 139.828 242.58 139.642H242.438L242.21 141H240.551ZM242.943 136.636C242.845 137.25 242.845 137.788 242.943 138.25C243.045 138.712 243.244 139.074 243.54 139.335C243.839 139.593 244.231 139.722 244.716 139.722C245.223 139.722 245.67 139.587 246.057 139.318C246.443 139.045 246.761 138.676 247.011 138.21C247.261 137.744 247.436 137.22 247.534 136.636C247.625 136.061 247.623 135.544 247.528 135.085C247.434 134.627 247.237 134.265 246.938 134C246.642 133.735 246.239 133.602 245.727 133.602C245.235 133.602 244.797 133.729 244.415 133.983C244.032 134.237 243.716 134.591 243.466 135.045C243.216 135.5 243.042 136.03 242.943 136.636ZM254.169 141.176C253.313 141.176 252.605 140.992 252.044 140.625C251.487 140.254 251.097 139.733 250.874 139.062C250.65 138.388 250.614 137.598 250.766 136.693C250.913 135.799 251.211 135.011 251.658 134.33C252.105 133.648 252.661 133.116 253.328 132.733C253.999 132.35 254.739 132.159 255.55 132.159C256.042 132.159 256.506 132.241 256.942 132.403C257.381 132.566 257.754 132.822 258.061 133.17C258.368 133.519 258.58 133.972 258.697 134.528C258.819 135.081 258.815 135.754 258.686 136.545L258.589 137.148H251.646L251.845 135.875H257.118C257.197 135.428 257.177 135.032 257.055 134.688C256.934 134.339 256.726 134.064 256.43 133.864C256.139 133.663 255.771 133.562 255.328 133.562C254.874 133.562 254.449 133.682 254.055 133.92C253.661 134.159 253.332 134.464 253.067 134.835C252.805 135.203 252.641 135.581 252.572 135.972L252.374 137.136C252.275 137.773 252.292 138.284 252.425 138.67C252.561 139.057 252.8 139.337 253.141 139.511C253.482 139.686 253.908 139.773 254.419 139.773C254.749 139.773 255.054 139.727 255.334 139.636C255.618 139.542 255.87 139.403 256.089 139.222C256.309 139.036 256.493 138.805 256.641 138.528L258.197 138.818C257.989 139.292 257.69 139.706 257.3 140.062C256.91 140.415 256.449 140.689 255.919 140.886C255.393 141.08 254.809 141.176 254.169 141.176ZM267.494 134.403L265.909 134.676C265.875 134.475 265.805 134.286 265.699 134.108C265.597 133.93 265.439 133.786 265.227 133.676C265.015 133.562 264.733 133.506 264.381 133.506C263.892 133.506 263.464 133.617 263.097 133.841C262.733 134.064 262.525 134.348 262.472 134.693C262.422 134.973 262.489 135.201 262.67 135.375C262.852 135.545 263.172 135.687 263.631 135.801L264.972 136.119C265.744 136.305 266.297 136.595 266.631 136.989C266.968 137.379 267.085 137.886 266.983 138.511C266.896 139.03 266.669 139.491 266.301 139.892C265.938 140.294 265.472 140.608 264.903 140.835C264.335 141.063 263.703 141.176 263.006 141.176C262.013 141.176 261.241 140.966 260.688 140.545C260.134 140.125 259.85 139.53 259.835 138.761L261.517 138.511C261.547 138.939 261.701 139.263 261.977 139.483C262.258 139.699 262.646 139.807 263.142 139.807C263.71 139.811 264.186 139.691 264.568 139.449C264.951 139.206 265.169 138.913 265.222 138.568C265.267 138.299 265.206 138.076 265.04 137.898C264.877 137.72 264.589 137.583 264.176 137.489L262.767 137.165C261.979 136.979 261.422 136.68 261.097 136.267C260.771 135.854 260.661 135.335 260.767 134.71C260.85 134.199 261.066 133.754 261.415 133.375C261.767 132.992 262.212 132.695 262.75 132.483C263.288 132.267 263.883 132.159 264.534 132.159C265.485 132.159 266.199 132.364 266.676 132.773C267.153 133.178 267.426 133.722 267.494 134.403ZM273.959 132.273L273.737 133.636H268.97L269.192 132.273H273.959ZM270.811 130.182H272.51L271.135 138.438C271.082 138.767 271.091 139.015 271.163 139.182C271.235 139.345 271.345 139.456 271.493 139.517C271.644 139.574 271.813 139.602 271.999 139.602C272.135 139.602 272.254 139.593 272.357 139.574C272.459 139.555 272.54 139.54 272.601 139.528L272.692 140.932C272.578 140.97 272.425 141.008 272.232 141.045C272.042 141.087 271.811 141.11 271.538 141.114C271.091 141.121 270.688 141.042 270.328 140.875C269.968 140.705 269.699 140.447 269.521 140.102C269.343 139.754 269.3 139.316 269.391 138.79L270.811 130.182ZM278.028 141.176C277.172 141.176 276.464 140.992 275.903 140.625C275.347 140.254 274.956 139.733 274.733 139.062C274.509 138.388 274.473 137.598 274.625 136.693C274.773 135.799 275.07 135.011 275.517 134.33C275.964 133.648 276.521 133.116 277.188 132.733C277.858 132.35 278.598 132.159 279.409 132.159C279.902 132.159 280.366 132.241 280.801 132.403C281.241 132.566 281.614 132.822 281.92 133.17C282.227 133.519 282.439 133.972 282.557 134.528C282.678 135.081 282.674 135.754 282.545 136.545L282.449 137.148H275.506L275.705 135.875H280.977C281.057 135.428 281.036 135.032 280.915 134.688C280.794 134.339 280.585 134.064 280.29 133.864C279.998 133.663 279.631 133.562 279.188 133.562C278.733 133.562 278.309 133.682 277.915 133.92C277.521 134.159 277.191 134.464 276.926 134.835C276.665 135.203 276.5 135.581 276.432 135.972L276.233 137.136C276.134 137.773 276.152 138.284 276.284 138.67C276.42 139.057 276.659 139.337 277 139.511C277.341 139.686 277.767 139.773 278.278 139.773C278.608 139.773 278.913 139.727 279.193 139.636C279.477 139.542 279.729 139.403 279.949 139.222C280.169 139.036 280.352 138.805 280.5 138.528L282.057 138.818C281.848 139.292 281.549 139.706 281.159 140.062C280.769 140.415 280.309 140.689 279.778 140.886C279.252 141.08 278.669 141.176 278.028 141.176ZM293.554 132.273L293.332 133.636H288.401L288.622 132.273H293.554ZM288.52 141L290.145 131.261C290.228 130.716 290.42 130.263 290.719 129.903C291.018 129.54 291.38 129.269 291.804 129.091C292.228 128.909 292.671 128.818 293.134 128.818C293.474 128.818 293.76 128.847 293.991 128.903C294.226 128.956 294.397 129.006 294.503 129.051L293.884 130.426C293.808 130.403 293.711 130.377 293.594 130.347C293.476 130.312 293.329 130.295 293.151 130.295C292.738 130.295 292.425 130.398 292.213 130.602C292.005 130.807 291.865 131.102 291.793 131.489L290.219 141H288.52ZM297.224 141.176C296.395 141.176 295.702 140.987 295.145 140.608C294.588 140.225 294.196 139.691 293.969 139.006C293.745 138.316 293.707 137.515 293.855 136.602C293.999 135.708 294.289 134.928 294.724 134.261C295.164 133.595 295.713 133.078 296.372 132.71C297.035 132.343 297.772 132.159 298.582 132.159C299.412 132.159 300.103 132.35 300.656 132.733C301.213 133.116 301.605 133.652 301.832 134.341C302.06 135.03 302.099 135.833 301.952 136.75C301.808 137.636 301.514 138.413 301.071 139.08C300.632 139.742 300.082 140.258 299.423 140.625C298.764 140.992 298.031 141.176 297.224 141.176ZM297.321 139.75C297.866 139.75 298.342 139.606 298.747 139.318C299.156 139.03 299.49 138.648 299.747 138.17C300.005 137.693 300.181 137.17 300.276 136.602C300.363 136.053 300.361 135.551 300.27 135.097C300.183 134.638 299.993 134.271 299.702 133.994C299.41 133.718 299.005 133.58 298.486 133.58C297.94 133.58 297.461 133.725 297.048 134.017C296.639 134.305 296.306 134.689 296.048 135.17C295.795 135.652 295.622 136.176 295.531 136.744C295.444 137.29 295.444 137.792 295.531 138.25C295.618 138.705 295.808 139.068 296.099 139.341C296.391 139.614 296.798 139.75 297.321 139.75ZM303.149 141L304.604 132.273H306.246L306.013 133.659H306.104C306.339 133.189 306.681 132.82 307.132 132.551C307.583 132.278 308.064 132.142 308.575 132.142C308.685 132.142 308.81 132.146 308.95 132.153C309.09 132.157 309.204 132.167 309.291 132.182L309.018 133.807C308.954 133.788 308.837 133.767 308.666 133.744C308.496 133.718 308.32 133.705 308.138 133.705C307.74 133.705 307.371 133.79 307.03 133.96C306.689 134.127 306.403 134.36 306.172 134.659C305.941 134.955 305.791 135.292 305.723 135.67L304.848 141H303.149ZM316.072 141.193C315.519 141.193 315.036 141.091 314.624 140.886C314.211 140.678 313.906 140.377 313.709 139.983C313.512 139.589 313.461 139.106 313.555 138.534C313.639 138.042 313.802 137.636 314.044 137.318C314.29 137 314.589 136.748 314.942 136.562C315.294 136.373 315.677 136.231 316.089 136.136C316.502 136.042 316.919 135.972 317.339 135.926C317.87 135.866 318.3 135.814 318.629 135.773C318.963 135.731 319.213 135.667 319.379 135.58C319.546 135.489 319.646 135.341 319.68 135.136V135.097C319.76 134.604 319.688 134.222 319.464 133.949C319.245 133.672 318.862 133.534 318.317 133.534C317.749 133.534 317.271 133.659 316.885 133.909C316.502 134.159 316.22 134.439 316.038 134.75L314.516 134.386C314.788 133.856 315.135 133.428 315.555 133.102C315.98 132.773 316.444 132.534 316.947 132.386C317.451 132.235 317.966 132.159 318.493 132.159C318.841 132.159 319.203 132.201 319.578 132.284C319.953 132.364 320.294 132.511 320.601 132.727C320.911 132.943 321.143 133.252 321.294 133.653C321.446 134.051 321.468 134.568 321.362 135.205L320.402 141H318.743L318.947 139.807H318.879C318.735 140.027 318.535 140.242 318.277 140.455C318.023 140.667 317.713 140.843 317.345 140.983C316.978 141.123 316.554 141.193 316.072 141.193ZM316.652 139.83C317.125 139.83 317.544 139.737 317.908 139.551C318.275 139.366 318.572 139.123 318.8 138.824C319.027 138.521 319.169 138.197 319.226 137.852L319.413 136.727C319.341 136.788 319.214 136.843 319.033 136.892C318.855 136.941 318.654 136.985 318.43 137.023C318.207 137.061 317.987 137.093 317.771 137.119C317.559 137.146 317.383 137.17 317.243 137.193C316.91 137.235 316.597 137.305 316.305 137.403C316.018 137.502 315.777 137.644 315.584 137.83C315.391 138.011 315.269 138.254 315.22 138.557C315.152 138.977 315.252 139.295 315.521 139.511C315.794 139.723 316.171 139.83 316.652 139.83ZM318.805 131.307C318.427 131.307 318.095 131.223 317.811 131.057C317.527 130.886 317.311 130.657 317.163 130.369C317.016 130.081 316.961 129.758 316.999 129.398C317.036 129.042 317.161 128.716 317.374 128.42C317.589 128.121 317.862 127.883 318.192 127.705C318.521 127.527 318.874 127.438 319.249 127.438C319.627 127.438 319.957 127.527 320.237 127.705C320.518 127.883 320.73 128.121 320.874 128.42C321.021 128.716 321.076 129.042 321.038 129.398C321 129.758 320.875 130.081 320.663 130.369C320.451 130.657 320.182 130.886 319.857 131.057C319.531 131.223 319.18 131.307 318.805 131.307ZM318.925 130.398C319.22 130.398 319.474 130.295 319.686 130.091C319.898 129.886 320.019 129.655 320.05 129.398C320.08 129.133 320.008 128.896 319.834 128.688C319.663 128.475 319.43 128.369 319.135 128.369C318.839 128.369 318.584 128.475 318.368 128.688C318.156 128.896 318.035 129.133 318.004 129.398C317.974 129.655 318.044 129.886 318.214 130.091C318.389 130.295 318.625 130.398 318.925 130.398ZM330.53 129.364L328.598 141H326.899L328.831 129.364H330.53ZM334.622 141.176C333.766 141.176 333.058 140.992 332.497 140.625C331.94 140.254 331.55 139.733 331.327 139.062C331.103 138.388 331.067 137.598 331.219 136.693C331.366 135.799 331.664 135.011 332.111 134.33C332.558 133.648 333.115 133.116 333.781 132.733C334.452 132.35 335.192 132.159 336.003 132.159C336.495 132.159 336.959 132.241 337.395 132.403C337.834 132.566 338.207 132.822 338.514 133.17C338.821 133.519 339.033 133.972 339.151 134.528C339.272 135.081 339.268 135.754 339.139 136.545L339.043 137.148H332.099L332.298 135.875H337.571C337.651 135.428 337.63 135.032 337.509 134.688C337.387 134.339 337.179 134.064 336.884 133.864C336.592 133.663 336.224 133.562 335.781 133.562C335.327 133.562 334.902 133.682 334.509 133.92C334.115 134.159 333.785 134.464 333.52 134.835C333.259 135.203 333.094 135.581 333.026 135.972L332.827 137.136C332.728 137.773 332.745 138.284 332.878 138.67C333.014 139.057 333.253 139.337 333.594 139.511C333.935 139.686 334.361 139.773 334.872 139.773C335.202 139.773 335.507 139.727 335.787 139.636C336.071 139.542 336.323 139.403 336.543 139.222C336.762 139.036 336.946 138.805 337.094 138.528L338.651 138.818C338.442 139.292 338.143 139.706 337.753 140.062C337.363 140.415 336.902 140.689 336.372 140.886C335.846 141.08 335.262 141.176 334.622 141.176ZM348.976 132.273L344.357 141H342.538L340.822 132.273H342.578L343.669 138.989H343.76L347.084 132.273H348.976ZM352.56 141.176C351.704 141.176 350.995 140.992 350.435 140.625C349.878 140.254 349.488 139.733 349.264 139.062C349.041 138.388 349.005 137.598 349.156 136.693C349.304 135.799 349.601 135.011 350.048 134.33C350.495 133.648 351.052 133.116 351.719 132.733C352.389 132.35 353.13 132.159 353.94 132.159C354.433 132.159 354.897 132.241 355.332 132.403C355.772 132.566 356.145 132.822 356.452 133.17C356.759 133.519 356.971 133.972 357.088 134.528C357.209 135.081 357.205 135.754 357.077 136.545L356.98 137.148H350.037L350.236 135.875H355.509C355.588 135.428 355.567 135.032 355.446 134.688C355.325 134.339 355.116 134.064 354.821 133.864C354.529 133.663 354.162 133.562 353.719 133.562C353.264 133.562 352.84 133.682 352.446 133.92C352.052 134.159 351.723 134.464 351.457 134.835C351.196 135.203 351.031 135.581 350.963 135.972L350.764 137.136C350.666 137.773 350.683 138.284 350.815 138.67C350.952 139.057 351.19 139.337 351.531 139.511C351.872 139.686 352.298 139.773 352.81 139.773C353.139 139.773 353.444 139.727 353.724 139.636C354.009 139.542 354.26 139.403 354.48 139.222C354.7 139.036 354.884 138.805 355.031 138.528L356.588 138.818C356.38 139.292 356.08 139.706 355.69 140.062C355.3 140.415 354.84 140.689 354.31 140.886C353.783 141.08 353.2 141.176 352.56 141.176ZM358.243 141L359.697 132.273H361.339L361.107 133.659H361.197C361.432 133.189 361.775 132.82 362.226 132.551C362.677 132.278 363.158 132.142 363.669 132.142C363.779 132.142 363.904 132.146 364.044 132.153C364.184 132.157 364.298 132.167 364.385 132.182L364.112 133.807C364.048 133.788 363.93 133.767 363.76 133.744C363.589 133.718 363.413 133.705 363.232 133.705C362.834 133.705 362.464 133.79 362.124 133.96C361.783 134.127 361.497 134.36 361.266 134.659C361.035 134.955 360.885 135.292 360.817 135.67L359.942 141H358.243ZM367.841 141.176C366.985 141.176 366.277 140.992 365.716 140.625C365.159 140.254 364.769 139.733 364.545 139.062C364.322 138.388 364.286 137.598 364.438 136.693C364.585 135.799 364.883 135.011 365.33 134.33C365.777 133.648 366.333 133.116 367 132.733C367.67 132.35 368.411 132.159 369.222 132.159C369.714 132.159 370.178 132.241 370.614 132.403C371.053 132.566 371.426 132.822 371.733 133.17C372.04 133.519 372.252 133.972 372.369 134.528C372.491 135.081 372.487 135.754 372.358 136.545L372.261 137.148H365.318L365.517 135.875H370.79C370.869 135.428 370.848 135.032 370.727 134.688C370.606 134.339 370.398 134.064 370.102 133.864C369.811 133.663 369.443 133.562 369 133.562C368.545 133.562 368.121 133.682 367.727 133.92C367.333 134.159 367.004 134.464 366.739 134.835C366.477 135.203 366.313 135.581 366.244 135.972L366.045 137.136C365.947 137.773 365.964 138.284 366.097 138.67C366.233 139.057 366.472 139.337 366.812 139.511C367.153 139.686 367.58 139.773 368.091 139.773C368.42 139.773 368.725 139.727 369.006 139.636C369.29 139.542 369.542 139.403 369.761 139.222C369.981 139.036 370.165 138.805 370.312 138.528L371.869 138.818C371.661 139.292 371.362 139.706 370.972 140.062C370.581 140.415 370.121 140.689 369.591 140.886C369.064 141.08 368.481 141.176 367.841 141.176ZM381.014 141.17C380.306 141.17 379.705 140.991 379.213 140.631C378.724 140.267 378.378 139.75 378.173 139.08C377.973 138.405 377.95 137.597 378.105 136.653C378.264 135.71 378.558 134.903 378.986 134.233C379.414 133.562 379.933 133.049 380.543 132.693C381.152 132.337 381.81 132.159 382.514 132.159C383.056 132.159 383.476 132.25 383.776 132.432C384.079 132.61 384.302 132.818 384.446 133.057C384.59 133.295 384.698 133.506 384.77 133.688H384.866L385.588 129.364H387.287L385.355 141H383.696L383.929 139.642H383.787C383.654 139.828 383.471 140.04 383.236 140.278C383.005 140.517 382.709 140.725 382.349 140.903C381.99 141.081 381.545 141.17 381.014 141.17ZM381.588 139.722C382.077 139.722 382.514 139.593 382.901 139.335C383.291 139.074 383.615 138.712 383.872 138.25C384.134 137.788 384.315 137.25 384.418 136.636C384.52 136.03 384.518 135.5 384.412 135.045C384.306 134.591 384.101 134.237 383.798 133.983C383.495 133.729 383.096 133.602 382.599 133.602C382.088 133.602 381.643 133.735 381.264 134C380.885 134.265 380.575 134.627 380.332 135.085C380.094 135.544 379.927 136.061 379.832 136.636C379.734 137.22 379.73 137.744 379.821 138.21C379.912 138.676 380.103 139.045 380.395 139.318C380.687 139.587 381.084 139.722 381.588 139.722ZM391.513 141.176C390.657 141.176 389.948 140.992 389.388 140.625C388.831 140.254 388.441 139.733 388.217 139.062C387.994 138.388 387.958 137.598 388.109 136.693C388.257 135.799 388.554 135.011 389.001 134.33C389.448 133.648 390.005 133.116 390.672 132.733C391.342 132.35 392.083 132.159 392.893 132.159C393.386 132.159 393.85 132.241 394.286 132.403C394.725 132.566 395.098 132.822 395.405 133.17C395.712 133.519 395.924 133.972 396.041 134.528C396.162 135.081 396.159 135.754 396.03 136.545L395.933 137.148H388.99L389.189 135.875H394.462C394.541 135.428 394.52 135.032 394.399 134.688C394.278 134.339 394.07 134.064 393.774 133.864C393.482 133.663 393.115 133.562 392.672 133.562C392.217 133.562 391.793 133.682 391.399 133.92C391.005 134.159 390.676 134.464 390.411 134.835C390.149 135.203 389.984 135.581 389.916 135.972L389.717 137.136C389.619 137.773 389.636 138.284 389.768 138.67C389.905 139.057 390.143 139.337 390.484 139.511C390.825 139.686 391.251 139.773 391.763 139.773C392.092 139.773 392.397 139.727 392.678 139.636C392.962 139.542 393.214 139.403 393.433 139.222C393.653 139.036 393.837 138.805 393.984 138.528L395.541 138.818C395.333 139.292 395.034 139.706 394.643 140.062C394.253 140.415 393.793 140.689 393.263 140.886C392.736 141.08 392.153 141.176 391.513 141.176ZM248.057 162.403L246.472 162.676C246.438 162.475 246.367 162.286 246.261 162.108C246.159 161.93 246.002 161.786 245.79 161.676C245.578 161.562 245.295 161.506 244.943 161.506C244.455 161.506 244.027 161.617 243.659 161.841C243.295 162.064 243.087 162.348 243.034 162.693C242.985 162.973 243.051 163.201 243.233 163.375C243.415 163.545 243.735 163.687 244.193 163.801L245.534 164.119C246.307 164.305 246.86 164.595 247.193 164.989C247.53 165.379 247.648 165.886 247.545 166.511C247.458 167.03 247.231 167.491 246.864 167.892C246.5 168.294 246.034 168.608 245.466 168.835C244.898 169.063 244.265 169.176 243.568 169.176C242.576 169.176 241.803 168.966 241.25 168.545C240.697 168.125 240.413 167.53 240.398 166.761L242.08 166.511C242.11 166.939 242.263 167.263 242.54 167.483C242.82 167.699 243.208 167.807 243.705 167.807C244.273 167.811 244.748 167.691 245.131 167.449C245.513 167.206 245.731 166.913 245.784 166.568C245.83 166.299 245.769 166.076 245.602 165.898C245.439 165.72 245.152 165.583 244.739 165.489L243.33 165.165C242.542 164.979 241.985 164.68 241.659 164.267C241.333 163.854 241.223 163.335 241.33 162.71C241.413 162.199 241.629 161.754 241.977 161.375C242.33 160.992 242.775 160.695 243.312 160.483C243.85 160.267 244.445 160.159 245.097 160.159C246.047 160.159 246.761 160.364 247.239 160.773C247.716 161.178 247.989 161.722 248.057 162.403ZM248.993 169L250.447 160.273H252.146L250.692 169H248.993ZM251.652 158.909C251.357 158.909 251.107 158.811 250.902 158.614C250.701 158.413 250.608 158.174 250.624 157.898C250.639 157.617 250.756 157.379 250.976 157.182C251.196 156.981 251.451 156.881 251.743 156.881C252.038 156.881 252.286 156.981 252.487 157.182C252.688 157.379 252.783 157.617 252.771 157.898C252.756 158.174 252.639 158.413 252.419 158.614C252.203 158.811 251.947 158.909 251.652 158.909ZM255.028 166.04L255.352 163.966H255.653L259.756 160.273H261.79L257.131 164.477H256.864L255.028 166.04ZM252.977 169L254.909 157.364H256.608L254.676 169H252.977ZM258.489 169L256.057 164.852L257.415 163.665L260.574 169H258.489ZM261.884 169L263.338 160.273H264.98L264.747 161.659H264.838C265.073 161.189 265.416 160.82 265.866 160.551C266.317 160.278 266.798 160.142 267.31 160.142C267.42 160.142 267.545 160.146 267.685 160.153C267.825 160.157 267.938 160.167 268.026 160.182L267.753 161.807C267.688 161.788 267.571 161.767 267.401 161.744C267.23 161.718 267.054 161.705 266.872 161.705C266.474 161.705 266.105 161.79 265.764 161.96C265.423 162.127 265.137 162.36 264.906 162.659C264.675 162.955 264.526 163.292 264.457 163.67L263.582 169H261.884ZM271.482 169.176C270.625 169.176 269.917 168.992 269.357 168.625C268.8 168.254 268.41 167.733 268.186 167.062C267.963 166.388 267.927 165.598 268.078 164.693C268.226 163.799 268.523 163.011 268.97 162.33C269.417 161.648 269.974 161.116 270.641 160.733C271.311 160.35 272.052 160.159 272.862 160.159C273.355 160.159 273.819 160.241 274.254 160.403C274.694 160.566 275.067 160.822 275.374 161.17C275.68 161.519 275.893 161.972 276.01 162.528C276.131 163.081 276.127 163.754 275.999 164.545L275.902 165.148H268.959L269.158 163.875H274.43C274.51 163.428 274.489 163.032 274.368 162.688C274.247 162.339 274.038 162.064 273.743 161.864C273.451 161.663 273.084 161.562 272.641 161.562C272.186 161.562 271.762 161.682 271.368 161.92C270.974 162.159 270.644 162.464 270.379 162.835C270.118 163.203 269.953 163.581 269.885 163.972L269.686 165.136C269.588 165.773 269.605 166.284 269.737 166.67C269.874 167.057 270.112 167.337 270.453 167.511C270.794 167.686 271.22 167.773 271.732 167.773C272.061 167.773 272.366 167.727 272.646 167.636C272.93 167.542 273.182 167.403 273.402 167.222C273.622 167.036 273.805 166.805 273.953 166.528L275.51 166.818C275.302 167.292 275.002 167.706 274.612 168.062C274.222 168.415 273.762 168.689 273.232 168.886C272.705 169.08 272.122 169.176 271.482 169.176ZM284.807 162.403L283.222 162.676C283.188 162.475 283.117 162.286 283.011 162.108C282.909 161.93 282.752 161.786 282.54 161.676C282.328 161.562 282.045 161.506 281.693 161.506C281.205 161.506 280.777 161.617 280.409 161.841C280.045 162.064 279.837 162.348 279.784 162.693C279.735 162.973 279.801 163.201 279.983 163.375C280.165 163.545 280.485 163.687 280.943 163.801L282.284 164.119C283.057 164.305 283.61 164.595 283.943 164.989C284.28 165.379 284.398 165.886 284.295 166.511C284.208 167.03 283.981 167.491 283.614 167.892C283.25 168.294 282.784 168.608 282.216 168.835C281.648 169.063 281.015 169.176 280.318 169.176C279.326 169.176 278.553 168.966 278 168.545C277.447 168.125 277.163 167.53 277.148 166.761L278.83 166.511C278.86 166.939 279.013 167.263 279.29 167.483C279.57 167.699 279.958 167.807 280.455 167.807C281.023 167.811 281.498 167.691 281.881 167.449C282.263 167.206 282.481 166.913 282.534 166.568C282.58 166.299 282.519 166.076 282.352 165.898C282.189 165.72 281.902 165.583 281.489 165.489L280.08 165.165C279.292 164.979 278.735 164.68 278.409 164.267C278.083 163.854 277.973 163.335 278.08 162.71C278.163 162.199 278.379 161.754 278.727 161.375C279.08 160.992 279.525 160.695 280.062 160.483C280.6 160.267 281.195 160.159 281.847 160.159C282.797 160.159 283.511 160.364 283.989 160.773C284.466 161.178 284.739 161.722 284.807 162.403ZM291.271 160.273L291.05 161.636H286.283L286.504 160.273H291.271ZM288.124 158.182H289.822L288.447 166.438C288.394 166.767 288.404 167.015 288.476 167.182C288.548 167.345 288.658 167.456 288.805 167.517C288.957 167.574 289.125 167.602 289.311 167.602C289.447 167.602 289.567 167.593 289.669 167.574C289.771 167.555 289.853 167.54 289.913 167.528L290.004 168.932C289.891 168.97 289.737 169.008 289.544 169.045C289.355 169.087 289.124 169.11 288.851 169.114C288.404 169.121 288 169.042 287.641 168.875C287.281 168.705 287.012 168.447 286.834 168.102C286.656 167.754 286.612 167.316 286.703 166.79L288.124 158.182ZM295.341 169.176C294.485 169.176 293.777 168.992 293.216 168.625C292.659 168.254 292.269 167.733 292.045 167.062C291.822 166.388 291.786 165.598 291.938 164.693C292.085 163.799 292.383 163.011 292.83 162.33C293.277 161.648 293.833 161.116 294.5 160.733C295.17 160.35 295.911 160.159 296.722 160.159C297.214 160.159 297.678 160.241 298.114 160.403C298.553 160.566 298.926 160.822 299.233 161.17C299.54 161.519 299.752 161.972 299.869 162.528C299.991 163.081 299.987 163.754 299.858 164.545L299.761 165.148H292.818L293.017 163.875H298.29C298.369 163.428 298.348 163.032 298.227 162.688C298.106 162.339 297.898 162.064 297.602 161.864C297.311 161.663 296.943 161.562 296.5 161.562C296.045 161.562 295.621 161.682 295.227 161.92C294.833 162.159 294.504 162.464 294.239 162.835C293.977 163.203 293.813 163.581 293.744 163.972L293.545 165.136C293.447 165.773 293.464 166.284 293.597 166.67C293.733 167.057 293.972 167.337 294.312 167.511C294.653 167.686 295.08 167.773 295.591 167.773C295.92 167.773 296.225 167.727 296.506 167.636C296.79 167.542 297.042 167.403 297.261 167.222C297.481 167.036 297.665 166.805 297.812 166.528L299.369 166.818C299.161 167.292 298.862 167.706 298.472 168.062C298.081 168.415 297.621 168.689 297.091 168.886C296.564 169.08 295.981 169.176 295.341 169.176ZM310.787 160.273L310.565 161.636H305.798L306.02 160.273H310.787ZM307.639 158.182H309.338L307.963 166.438C307.91 166.767 307.92 167.015 307.991 167.182C308.063 167.345 308.173 167.456 308.321 167.517C308.473 167.574 308.641 167.602 308.827 167.602C308.963 167.602 309.082 167.593 309.185 167.574C309.287 167.555 309.368 167.54 309.429 167.528L309.52 168.932C309.406 168.97 309.253 169.008 309.06 169.045C308.87 169.087 308.639 169.11 308.366 169.114C307.92 169.121 307.516 169.042 307.156 168.875C306.796 168.705 306.527 168.447 306.349 168.102C306.171 167.754 306.128 167.316 306.219 166.79L307.639 158.182ZM312.666 160.273H314.365L312.825 169.568C312.727 170.152 312.537 170.644 312.257 171.045C311.977 171.447 311.613 171.752 311.166 171.96C310.719 172.169 310.195 172.273 309.592 172.273C309.536 172.273 309.481 172.273 309.428 172.273C309.371 172.273 309.312 172.271 309.251 172.267L309.496 170.807C309.545 170.807 309.59 170.807 309.632 170.807C309.674 170.807 309.719 170.807 309.768 170.807C310.17 170.807 310.481 170.699 310.7 170.483C310.916 170.267 311.06 169.958 311.132 169.557L312.666 160.273ZM313.831 158.926C313.539 158.926 313.291 158.828 313.087 158.631C312.886 158.43 312.793 158.191 312.808 157.915C312.82 157.634 312.935 157.396 313.155 157.199C313.375 156.998 313.632 156.898 313.928 156.898C314.223 156.898 314.471 156.998 314.672 157.199C314.873 157.396 314.965 157.634 314.95 157.915C314.939 158.191 314.823 158.43 314.604 158.631C314.384 158.828 314.126 158.926 313.831 158.926ZM318.935 169.176C318.079 169.176 317.37 168.992 316.81 168.625C316.253 168.254 315.863 167.733 315.639 167.062C315.416 166.388 315.38 165.598 315.531 164.693C315.679 163.799 315.976 163.011 316.423 162.33C316.87 161.648 317.427 161.116 318.094 160.733C318.764 160.35 319.505 160.159 320.315 160.159C320.808 160.159 321.272 160.241 321.707 160.403C322.147 160.566 322.52 160.822 322.827 161.17C323.134 161.519 323.346 161.972 323.463 162.528C323.584 163.081 323.58 163.754 323.452 164.545L323.355 165.148H316.412L316.611 163.875H321.884C321.963 163.428 321.942 163.032 321.821 162.688C321.7 162.339 321.491 162.064 321.196 161.864C320.904 161.663 320.537 161.562 320.094 161.562C319.639 161.562 319.215 161.682 318.821 161.92C318.427 162.159 318.098 162.464 317.832 162.835C317.571 163.203 317.406 163.581 317.338 163.972L317.139 165.136C317.041 165.773 317.058 166.284 317.19 166.67C317.327 167.057 317.565 167.337 317.906 167.511C318.247 167.686 318.673 167.773 319.185 167.773C319.514 167.773 319.819 167.727 320.099 167.636C320.384 167.542 320.635 167.403 320.855 167.222C321.075 167.036 321.259 166.805 321.406 166.528L322.963 166.818C322.755 167.292 322.455 167.706 322.065 168.062C321.675 168.415 321.215 168.689 320.685 168.886C320.158 169.08 319.575 169.176 318.935 169.176ZM327.175 163.818L326.322 169H324.624L326.078 160.273H327.709L327.47 161.693H327.578C327.855 161.227 328.232 160.856 328.709 160.58C329.19 160.299 329.758 160.159 330.413 160.159C331.004 160.159 331.5 160.284 331.902 160.534C332.307 160.78 332.593 161.148 332.76 161.636C332.93 162.125 332.957 162.729 332.839 163.449L331.908 169H330.209L331.101 163.653C331.203 163.021 331.12 162.527 330.851 162.17C330.586 161.811 330.163 161.631 329.584 161.631C329.19 161.631 328.824 161.716 328.487 161.886C328.154 162.057 327.872 162.307 327.641 162.636C327.413 162.962 327.258 163.356 327.175 163.818ZM337.919 169.176C337.063 169.176 336.355 168.992 335.794 168.625C335.237 168.254 334.847 167.733 334.624 167.062C334.4 166.388 334.364 165.598 334.516 164.693C334.663 163.799 334.961 163.011 335.408 162.33C335.855 161.648 336.411 161.116 337.078 160.733C337.749 160.35 338.489 160.159 339.3 160.159C339.792 160.159 340.256 160.241 340.692 160.403C341.131 160.566 341.504 160.822 341.811 161.17C342.118 161.519 342.33 161.972 342.447 162.528C342.569 163.081 342.565 163.754 342.436 164.545L342.339 165.148H335.396L335.595 163.875H340.868C340.947 163.428 340.927 163.032 340.805 162.688C340.684 162.339 340.476 162.064 340.18 161.864C339.889 161.663 339.521 161.562 339.078 161.562C338.624 161.562 338.199 161.682 337.805 161.92C337.411 162.159 337.082 162.464 336.817 162.835C336.555 163.203 336.391 163.581 336.322 163.972L336.124 165.136C336.025 165.773 336.042 166.284 336.175 166.67C336.311 167.057 336.55 167.337 336.891 167.511C337.232 167.686 337.658 167.773 338.169 167.773C338.499 167.773 338.804 167.727 339.084 167.636C339.368 167.542 339.62 167.403 339.839 167.222C340.059 167.036 340.243 166.805 340.391 166.528L341.947 166.818C341.739 167.292 341.44 167.706 341.05 168.062C340.66 168.415 340.199 168.689 339.669 168.886C339.143 169.08 338.559 169.176 337.919 169.176ZM351.244 162.403L349.659 162.676C349.625 162.475 349.555 162.286 349.449 162.108C349.347 161.93 349.189 161.786 348.977 161.676C348.765 161.562 348.483 161.506 348.131 161.506C347.642 161.506 347.214 161.617 346.847 161.841C346.483 162.064 346.275 162.348 346.222 162.693C346.172 162.973 346.239 163.201 346.42 163.375C346.602 163.545 346.922 163.687 347.381 163.801L348.722 164.119C349.494 164.305 350.047 164.595 350.381 164.989C350.718 165.379 350.835 165.886 350.733 166.511C350.646 167.03 350.419 167.491 350.051 167.892C349.688 168.294 349.222 168.608 348.653 168.835C348.085 169.063 347.453 169.176 346.756 169.176C345.763 169.176 344.991 168.966 344.438 168.545C343.884 168.125 343.6 167.53 343.585 166.761L345.267 166.511C345.297 166.939 345.451 167.263 345.727 167.483C346.008 167.699 346.396 167.807 346.892 167.807C347.46 167.811 347.936 167.691 348.318 167.449C348.701 167.206 348.919 166.913 348.972 166.568C349.017 166.299 348.956 166.076 348.79 165.898C348.627 165.72 348.339 165.583 347.926 165.489L346.517 165.165C345.729 164.979 345.172 164.68 344.847 164.267C344.521 163.854 344.411 163.335 344.517 162.71C344.6 162.199 344.816 161.754 345.165 161.375C345.517 160.992 345.962 160.695 346.5 160.483C347.038 160.267 347.633 160.159 348.284 160.159C349.235 160.159 349.949 160.364 350.426 160.773C350.903 161.178 351.176 161.722 351.244 162.403ZM357.709 160.273L357.487 161.636H352.72L352.942 160.273H357.709ZM354.561 158.182H356.26L354.885 166.438C354.832 166.767 354.841 167.015 354.913 167.182C354.985 167.345 355.095 167.456 355.243 167.517C355.394 167.574 355.563 167.602 355.749 167.602C355.885 167.602 356.004 167.593 356.107 167.574C356.209 167.555 356.29 167.54 356.351 167.528L356.442 168.932C356.328 168.97 356.175 169.008 355.982 169.045C355.792 169.087 355.561 169.11 355.288 169.114C354.841 169.121 354.438 169.042 354.078 168.875C353.718 168.705 353.449 168.447 353.271 168.102C353.093 167.754 353.05 167.316 353.141 166.79L354.561 158.182ZM361.778 169.176C360.922 169.176 360.214 168.992 359.653 168.625C359.097 168.254 358.706 167.733 358.483 167.062C358.259 166.388 358.223 165.598 358.375 164.693C358.523 163.799 358.82 163.011 359.267 162.33C359.714 161.648 360.271 161.116 360.938 160.733C361.608 160.35 362.348 160.159 363.159 160.159C363.652 160.159 364.116 160.241 364.551 160.403C364.991 160.566 365.364 160.822 365.67 161.17C365.977 161.519 366.189 161.972 366.307 162.528C366.428 163.081 366.424 163.754 366.295 164.545L366.199 165.148H359.256L359.455 163.875H364.727C364.807 163.428 364.786 163.032 364.665 162.688C364.544 162.339 364.335 162.064 364.04 161.864C363.748 161.663 363.381 161.562 362.938 161.562C362.483 161.562 362.059 161.682 361.665 161.92C361.271 162.159 360.941 162.464 360.676 162.835C360.415 163.203 360.25 163.581 360.182 163.972L359.983 165.136C359.884 165.773 359.902 166.284 360.034 166.67C360.17 167.057 360.409 167.337 360.75 167.511C361.091 167.686 361.517 167.773 362.028 167.773C362.358 167.773 362.663 167.727 362.943 167.636C363.227 167.542 363.479 167.403 363.699 167.222C363.919 167.036 364.102 166.805 364.25 166.528L365.807 166.818C365.598 167.292 365.299 167.706 364.909 168.062C364.519 168.415 364.059 168.689 363.528 168.886C363.002 169.08 362.419 169.176 361.778 169.176ZM370.018 163.818L369.166 169H367.467L368.922 160.273H370.553L370.314 161.693H370.422C370.698 161.227 371.075 160.856 371.553 160.58C372.034 160.299 372.602 160.159 373.257 160.159C373.848 160.159 374.344 160.284 374.746 160.534C375.151 160.78 375.437 161.148 375.604 161.636C375.774 162.125 375.801 162.729 375.683 163.449L374.751 169H373.053L373.945 163.653C374.047 163.021 373.964 162.527 373.695 162.17C373.429 161.811 373.007 161.631 372.428 161.631C372.034 161.631 371.668 161.716 371.331 161.886C370.998 162.057 370.715 162.307 370.484 162.636C370.257 162.962 370.102 163.356 370.018 163.818ZM380.763 169.176C379.907 169.176 379.198 168.992 378.638 168.625C378.081 168.254 377.691 167.733 377.467 167.062C377.244 166.388 377.208 165.598 377.359 164.693C377.507 163.799 377.804 163.011 378.251 162.33C378.698 161.648 379.255 161.116 379.922 160.733C380.592 160.35 381.333 160.159 382.143 160.159C382.636 160.159 383.1 160.241 383.536 160.403C383.975 160.566 384.348 160.822 384.655 161.17C384.962 161.519 385.174 161.972 385.291 162.528C385.412 163.081 385.409 163.754 385.28 164.545L385.183 165.148H378.24L378.439 163.875H383.712C383.791 163.428 383.77 163.032 383.649 162.688C383.528 162.339 383.32 162.064 383.024 161.864C382.732 161.663 382.365 161.562 381.922 161.562C381.467 161.562 381.043 161.682 380.649 161.92C380.255 162.159 379.926 162.464 379.661 162.835C379.399 163.203 379.234 163.581 379.166 163.972L378.967 165.136C378.869 165.773 378.886 166.284 379.018 166.67C379.155 167.057 379.393 167.337 379.734 167.511C380.075 167.686 380.501 167.773 381.013 167.773C381.342 167.773 381.647 167.727 381.928 167.636C382.212 167.542 382.464 167.403 382.683 167.222C382.903 167.036 383.087 166.805 383.234 166.528L384.791 166.818C384.583 167.292 384.284 167.706 383.893 168.062C383.503 168.415 383.043 168.689 382.513 168.886C381.986 169.08 381.403 169.176 380.763 169.176ZM244.131 197.176C243.301 197.176 242.608 196.987 242.051 196.608C241.494 196.225 241.102 195.691 240.875 195.006C240.652 194.316 240.614 193.515 240.761 192.602C240.905 191.708 241.195 190.928 241.631 190.261C242.07 189.595 242.619 189.078 243.278 188.71C243.941 188.343 244.678 188.159 245.489 188.159C246.318 188.159 247.009 188.35 247.562 188.733C248.119 189.116 248.511 189.652 248.739 190.341C248.966 191.03 249.006 191.833 248.858 192.75C248.714 193.636 248.42 194.413 247.977 195.08C247.538 195.742 246.989 196.258 246.33 196.625C245.67 196.992 244.938 197.176 244.131 197.176ZM244.227 195.75C244.773 195.75 245.248 195.606 245.653 195.318C246.063 195.03 246.396 194.648 246.653 194.17C246.911 193.693 247.087 193.17 247.182 192.602C247.269 192.053 247.267 191.551 247.176 191.097C247.089 190.638 246.9 190.271 246.608 189.994C246.316 189.718 245.911 189.58 245.392 189.58C244.847 189.58 244.367 189.725 243.955 190.017C243.545 190.305 243.212 190.689 242.955 191.17C242.701 191.652 242.528 192.176 242.438 192.744C242.35 193.29 242.35 193.792 242.438 194.25C242.525 194.705 242.714 195.068 243.006 195.341C243.297 195.614 243.705 195.75 244.227 195.75ZM253.169 200.455C252.472 200.455 251.889 200.364 251.419 200.182C250.953 200 250.586 199.759 250.317 199.46C250.052 199.161 249.868 198.833 249.766 198.477L251.334 197.875C251.41 198.042 251.516 198.218 251.652 198.403C251.788 198.593 251.991 198.754 252.26 198.886C252.533 199.019 252.906 199.085 253.379 199.085C254.023 199.085 254.586 198.928 255.067 198.614C255.548 198.303 255.845 197.807 255.959 197.125L256.226 195.409H256.118C255.989 195.595 255.811 195.801 255.584 196.028C255.357 196.256 255.063 196.453 254.703 196.619C254.343 196.786 253.896 196.869 253.362 196.869C252.673 196.869 252.078 196.708 251.578 196.386C251.082 196.061 250.726 195.581 250.51 194.949C250.294 194.312 250.264 193.53 250.419 192.602C250.571 191.674 250.858 190.879 251.283 190.216C251.711 189.553 252.23 189.045 252.839 188.693C253.453 188.337 254.11 188.159 254.811 188.159C255.353 188.159 255.775 188.25 256.078 188.432C256.385 188.61 256.612 188.818 256.76 189.057C256.908 189.295 257.016 189.506 257.084 189.688H257.209L257.442 188.273H259.107L257.629 197.193C257.508 197.943 257.233 198.559 256.805 199.04C256.381 199.521 255.853 199.877 255.22 200.108C254.591 200.339 253.908 200.455 253.169 200.455ZM253.942 195.46C254.427 195.46 254.858 195.347 255.237 195.119C255.62 194.888 255.938 194.559 256.192 194.131C256.446 193.699 256.622 193.182 256.72 192.58C256.819 191.992 256.813 191.475 256.703 191.028C256.597 190.581 256.391 190.233 256.084 189.983C255.781 189.729 255.385 189.602 254.896 189.602C254.381 189.602 253.934 189.735 253.555 190C253.177 190.261 252.868 190.617 252.629 191.068C252.394 191.519 252.23 192.023 252.135 192.58C252.044 193.152 252.046 193.653 252.141 194.085C252.239 194.517 252.436 194.854 252.732 195.097C253.027 195.339 253.43 195.46 253.942 195.46ZM267.795 185.364L265.864 197H264.165L266.097 185.364H267.795ZM269.149 197.506L268.303 196.858L275.95 187.835L276.78 188.483L269.149 197.506ZM271.865 197.176C271.036 197.176 270.342 196.987 269.786 196.608C269.229 196.225 268.837 195.691 268.609 195.006C268.386 194.316 268.348 193.515 268.496 192.602C268.64 191.708 268.929 190.928 269.365 190.261C269.804 189.595 270.354 189.078 271.013 188.71C271.676 188.343 272.412 188.159 273.223 188.159C274.053 188.159 274.744 188.35 275.297 188.733C275.854 189.116 276.246 189.652 276.473 190.341C276.7 191.03 276.74 191.833 276.592 192.75C276.448 193.636 276.155 194.413 275.712 195.08C275.272 195.742 274.723 196.258 274.064 196.625C273.405 196.992 272.672 197.176 271.865 197.176ZM271.962 195.75C272.507 195.75 272.982 195.606 273.388 195.318C273.797 195.03 274.13 194.648 274.388 194.17C274.645 193.693 274.821 193.17 274.916 192.602C275.003 192.053 275.001 191.551 274.911 191.097C274.823 190.638 274.634 190.271 274.342 189.994C274.051 189.718 273.645 189.58 273.126 189.58C272.581 189.58 272.102 189.725 271.689 190.017C271.28 190.305 270.946 190.689 270.689 191.17C270.435 191.652 270.263 192.176 270.172 192.744C270.085 193.29 270.085 193.792 270.172 194.25C270.259 194.705 270.448 195.068 270.74 195.341C271.032 195.614 271.439 195.75 271.962 195.75ZM285.432 190.403L283.847 190.676C283.812 190.475 283.742 190.286 283.636 190.108C283.534 189.93 283.377 189.786 283.165 189.676C282.953 189.562 282.67 189.506 282.318 189.506C281.83 189.506 281.402 189.617 281.034 189.841C280.67 190.064 280.462 190.348 280.409 190.693C280.36 190.973 280.426 191.201 280.608 191.375C280.79 191.545 281.11 191.687 281.568 191.801L282.909 192.119C283.682 192.305 284.235 192.595 284.568 192.989C284.905 193.379 285.023 193.886 284.92 194.511C284.833 195.03 284.606 195.491 284.239 195.892C283.875 196.294 283.409 196.608 282.841 196.835C282.273 197.063 281.64 197.176 280.943 197.176C279.951 197.176 279.178 196.966 278.625 196.545C278.072 196.125 277.788 195.53 277.773 194.761L279.455 194.511C279.485 194.939 279.638 195.263 279.915 195.483C280.195 195.699 280.583 195.807 281.08 195.807C281.648 195.811 282.123 195.691 282.506 195.449C282.888 195.206 283.106 194.913 283.159 194.568C283.205 194.299 283.144 194.076 282.977 193.898C282.814 193.72 282.527 193.583 282.114 193.489L280.705 193.165C279.917 192.979 279.36 192.68 279.034 192.267C278.708 191.854 278.598 191.335 278.705 190.71C278.788 190.199 279.004 189.754 279.352 189.375C279.705 188.992 280.15 188.695 280.688 188.483C281.225 188.267 281.82 188.159 282.472 188.159C283.422 188.159 284.136 188.364 284.614 188.773C285.091 189.178 285.364 189.722 285.432 190.403ZM288.925 191.818L288.072 197H286.374L287.828 188.273H289.459L289.22 189.693H289.328C289.605 189.227 289.982 188.856 290.459 188.58C290.94 188.299 291.508 188.159 292.163 188.159C292.754 188.159 293.25 188.284 293.652 188.534C294.057 188.78 294.343 189.148 294.51 189.636C294.68 190.125 294.707 190.729 294.589 191.449L293.658 197H291.959L292.851 191.653C292.953 191.021 292.87 190.527 292.601 190.17C292.336 189.811 291.913 189.631 291.334 189.631C290.94 189.631 290.574 189.716 290.237 189.886C289.904 190.057 289.622 190.307 289.391 190.636C289.163 190.962 289.008 191.356 288.925 191.818ZM295.93 197L297.385 188.273H299.084L297.629 197H295.93ZM298.589 186.909C298.294 186.909 298.044 186.811 297.839 186.614C297.639 186.413 297.546 186.174 297.561 185.898C297.576 185.617 297.694 185.379 297.913 185.182C298.133 184.981 298.389 184.881 298.68 184.881C298.976 184.881 299.224 184.981 299.425 185.182C299.625 185.379 299.72 185.617 299.709 185.898C299.694 186.174 299.576 186.413 299.357 186.614C299.141 186.811 298.885 186.909 298.589 186.909ZM302.472 191.818L301.619 197H299.92L301.375 188.273H303.006L302.767 189.693H302.875C303.152 189.227 303.528 188.856 304.006 188.58C304.487 188.299 305.055 188.159 305.71 188.159C306.301 188.159 306.797 188.284 307.199 188.534C307.604 188.78 307.89 189.148 308.057 189.636C308.227 190.125 308.254 190.729 308.136 191.449L307.205 197H305.506L306.398 191.653C306.5 191.021 306.417 190.527 306.148 190.17C305.883 189.811 305.46 189.631 304.881 189.631C304.487 189.631 304.121 189.716 303.784 189.886C303.451 190.057 303.169 190.307 302.938 190.636C302.71 190.962 302.555 191.356 302.472 191.818ZM312.591 200.455C311.894 200.455 311.311 200.364 310.841 200.182C310.375 200 310.008 199.759 309.739 199.46C309.473 199.161 309.29 198.833 309.188 198.477L310.756 197.875C310.831 198.042 310.938 198.218 311.074 198.403C311.21 198.593 311.413 198.754 311.682 198.886C311.955 199.019 312.328 199.085 312.801 199.085C313.445 199.085 314.008 198.928 314.489 198.614C314.97 198.303 315.267 197.807 315.381 197.125L315.648 195.409H315.54C315.411 195.595 315.233 195.801 315.006 196.028C314.778 196.256 314.485 196.453 314.125 196.619C313.765 196.786 313.318 196.869 312.784 196.869C312.095 196.869 311.5 196.708 311 196.386C310.504 196.061 310.148 195.581 309.932 194.949C309.716 194.312 309.686 193.53 309.841 192.602C309.992 191.674 310.28 190.879 310.705 190.216C311.133 189.553 311.652 189.045 312.261 188.693C312.875 188.337 313.532 188.159 314.233 188.159C314.775 188.159 315.197 188.25 315.5 188.432C315.807 188.61 316.034 188.818 316.182 189.057C316.33 189.295 316.438 189.506 316.506 189.688H316.631L316.864 188.273H318.528L317.051 197.193C316.93 197.943 316.655 198.559 316.227 199.04C315.803 199.521 315.275 199.877 314.642 200.108C314.013 200.339 313.33 200.455 312.591 200.455ZM313.364 195.46C313.848 195.46 314.28 195.347 314.659 195.119C315.042 194.888 315.36 194.559 315.614 194.131C315.867 193.699 316.044 193.182 316.142 192.58C316.241 191.992 316.235 191.475 316.125 191.028C316.019 190.581 315.813 190.233 315.506 189.983C315.203 189.729 314.807 189.602 314.318 189.602C313.803 189.602 313.356 189.735 312.977 190C312.598 190.261 312.29 190.617 312.051 191.068C311.816 191.519 311.652 192.023 311.557 192.58C311.466 193.152 311.468 193.653 311.562 194.085C311.661 194.517 311.858 194.854 312.153 195.097C312.449 195.339 312.852 195.46 313.364 195.46ZM323.091 197.176C322.235 197.176 321.527 196.992 320.966 196.625C320.409 196.254 320.019 195.733 319.795 195.062C319.572 194.388 319.536 193.598 319.688 192.693C319.835 191.799 320.133 191.011 320.58 190.33C321.027 189.648 321.583 189.116 322.25 188.733C322.92 188.35 323.661 188.159 324.472 188.159C324.964 188.159 325.428 188.241 325.864 188.403C326.303 188.566 326.676 188.822 326.983 189.17C327.29 189.519 327.502 189.972 327.619 190.528C327.741 191.081 327.737 191.754 327.608 192.545L327.511 193.148H320.568L320.767 191.875H326.04C326.119 191.428 326.098 191.032 325.977 190.688C325.856 190.339 325.648 190.064 325.352 189.864C325.061 189.663 324.693 189.562 324.25 189.562C323.795 189.562 323.371 189.682 322.977 189.92C322.583 190.159 322.254 190.464 321.989 190.835C321.727 191.203 321.563 191.581 321.494 191.972L321.295 193.136C321.197 193.773 321.214 194.284 321.347 194.67C321.483 195.057 321.722 195.337 322.062 195.511C322.403 195.686 322.83 195.773 323.341 195.773C323.67 195.773 323.975 195.727 324.256 195.636C324.54 195.542 324.792 195.403 325.011 195.222C325.231 195.036 325.415 194.805 325.562 194.528L327.119 194.818C326.911 195.292 326.612 195.706 326.222 196.062C325.831 196.415 325.371 196.689 324.841 196.886C324.314 197.08 323.731 197.176 323.091 197.176ZM331.331 191.818L330.479 197H328.78L330.234 188.273H331.865L331.626 189.693H331.734C332.011 189.227 332.388 188.856 332.865 188.58C333.346 188.299 333.914 188.159 334.57 188.159C335.161 188.159 335.657 188.284 336.058 188.534C336.464 188.78 336.75 189.148 336.916 189.636C337.087 190.125 337.113 190.729 336.996 191.449L336.064 197H334.365L335.257 191.653C335.359 191.021 335.276 190.527 335.007 190.17C334.742 189.811 334.32 189.631 333.74 189.631C333.346 189.631 332.981 189.716 332.643 189.886C332.31 190.057 332.028 190.307 331.797 190.636C331.57 190.962 331.414 191.356 331.331 191.818ZM342.075 197.176C341.219 197.176 340.511 196.992 339.95 196.625C339.393 196.254 339.003 195.733 338.78 195.062C338.556 194.388 338.52 193.598 338.672 192.693C338.82 191.799 339.117 191.011 339.564 190.33C340.011 189.648 340.568 189.116 341.234 188.733C341.905 188.35 342.645 188.159 343.456 188.159C343.948 188.159 344.412 188.241 344.848 188.403C345.287 188.566 345.661 188.822 345.967 189.17C346.274 189.519 346.486 189.972 346.604 190.528C346.725 191.081 346.721 191.754 346.592 192.545L346.496 193.148H339.553L339.751 191.875H345.024C345.104 191.428 345.083 191.032 344.962 190.688C344.84 190.339 344.632 190.064 344.337 189.864C344.045 189.663 343.678 189.562 343.234 189.562C342.78 189.562 342.356 189.682 341.962 189.92C341.568 190.159 341.238 190.464 340.973 190.835C340.712 191.203 340.547 191.581 340.479 191.972L340.28 193.136C340.181 193.773 340.198 194.284 340.331 194.67C340.467 195.057 340.706 195.337 341.047 195.511C341.388 195.686 341.814 195.773 342.325 195.773C342.655 195.773 342.96 195.727 343.24 195.636C343.524 195.542 343.776 195.403 343.996 195.222C344.215 195.036 344.399 194.805 344.547 194.528L346.104 194.818C345.895 195.292 345.596 195.706 345.206 196.062C344.816 196.415 344.356 196.689 343.825 196.886C343.299 197.08 342.715 197.176 342.075 197.176Z" fill="#11133C"/>
<path d="M243.413 76V71.2443C243.413 69.8939 243.677 68.5142 244.205 67.1051C244.734 65.696 245.431 64.3677 246.297 63.12C247.163 61.8724 248.102 60.8303 249.115 59.9936L253.254 62.4375C252.432 63.7292 251.757 65.0795 251.229 66.4886C250.715 67.8977 250.458 69.4683 250.458 71.2003V76H243.413ZM254.531 76V71.2443C254.531 69.8939 254.795 68.5142 255.324 67.1051C255.852 65.696 256.549 64.3677 257.415 63.12C258.281 61.8724 259.221 60.8303 260.234 59.9936L264.373 62.4375C263.551 63.7292 262.876 65.0795 262.347 66.4886C261.834 67.8977 261.577 69.4683 261.577 71.2003V76H254.531Z" fill="#1D43C6"/>
<defs>
<clipPath id="clip0_58_1739">
<rect width="240" height="260.406" fill="white"/>
</clipPath>
</defs>
</svg>
